<svg width="54" height="73" xmlns="http://www.w3.org/2000/svg" viewBox="0 0 54 73"><path fill="#F5F6F7" d="M20 54v-9h34v9c0 5.2-7.7 9-17 9s-17-3.8-17-9z"/><path fill="#00E0B4" d="M22 47v7c0 3.7 6.6 7 15 7s15-3.3 15-7v-7H22zm-2 7v-9h34v9c0 5.2-7.7 9-17 9s-17-3.8-17-9z"/><path fill="#F5F6F7" d="M37 54c-9.3 0-17-3.8-17-9s7.7-9 17-9 17 3.8 17 9-7.7 9-17 9z"/><path fill="#00E0B4" d="M37 54c-9.3 0-17-3.8-17-9s7.7-9 17-9 17 3.8 17 9-7.7 9-17 9zm0-2c8.4 0 15-3.3 15-7s-6.6-7-15-7-15 3.3-15 7 6.6 7 15 7z"/><path fill="#F5F6F7" d="M20 45v-9h34v9c0 5.2-7.7 9-17 9s-17-3.8-17-9z"/><path fill="#00E0B4" d="M22 38v7c0 3.7 6.6 7 15 7s15-3.3 15-7v-7H22zm-2 7v-9h34v9c0 5.2-7.7 9-17 9s-17-3.8-17-9z"/><path fill="#F5F6F7" d="M37 45c-9.3 0-17-3.8-17-9s7.7-9 17-9 17 3.8 17 9-7.7 9-17 9z"/><path fill="#00E0B4" d="M37 45c-9.3 0-17-3.8-17-9s7.7-9 17-9 17 3.8 17 9-7.7 9-17 9zm0-2c8.4 0 15-3.3 15-7s-6.6-7-15-7-15 3.3-15 7 6.6 7 15 7z"/><g><path fill="#F5F6F7" d="M20 36v-9h34v9c0 5.2-7.7 9-17 9s-17-3.8-17-9z"/><path fill="#00E0B4" d="M22 29v7c0 3.7 6.6 7 15 7s15-3.3 15-7v-7H22zm-2 7v-9h34v9c0 5.2-7.7 9-17 9s-17-3.8-17-9z"/><path fill="#F5F6F7" d="M37 36c-9.3 0-17-3.8-17-9s7.7-9 17-9 17 3.8 17 9-7.7 9-17 9z"/><path fill="#00E0B4" d="M37 36c-9.3 0-17-3.8-17-9s7.7-9 17-9 17 3.8 17 9-7.7 9-17 9zm0-2c8.4 0 15-3.3 15-7s-6.6-7-15-7-15 3.3-15 7 6.6 7 15 7z"/></g><g><path fill="#F5F6F7" d="M20 27v-9h34v9c0 5.2-7.7 9-17 9s-17-3.8-17-9z"/><path fill="#00E0B4" d="M22 20v7c0 3.7 6.6 7 15 7s15-3.3 15-7v-7H22zm-2 7v-9h34v9c0 5.2-7.7 9-17 9s-17-3.8-17-9z"/><path fill="#F5F6F7" d="M37 27c-9.3 0-17-3.8-17-9s7.7-9 17-9 17 3.8 17 9-7.7 9-17 9z"/><path fill="#00E0B4" d="M37 27c-9.3 0-17-3.8-17-9s7.7-9 17-9 17 3.8 17 9-7.7 9-17 9zm0-2c8.4 0 15-3.3 15-7s-6.6-7-15-7-15 3.3-15 7 6.6 7 15 7z"/></g><g><path fill="#F5F6F7" d="M20 18V9h34v9c0 5.2-7.7 9-17 9s-17-3.8-17-9z"/><path fill="#00E0B4" d="M22 11v7c0 3.7 6.6 7 15 7s15-3.3 15-7v-7H22zm-2 7V9h34v9c0 5.2-7.7 9-17 9s-17-3.8-17-9z"/><path fill="#F5F6F7" d="M37 18c-9.3 0-17-3.8-17-9s7.7-9 17-9 17 3.8 17 9-7.7 9-17 9z"/><path fill="#00E0B4" d="M37 18c-9.3 0-17-3.8-17-9s7.7-9 17-9 17 3.8 17 9-7.7 9-17 9zm0-2c8.4 0 15-3.3 15-7s-6.6-7-15-7-15 3.3-15 7 6.6 7 15 7z"/></g><g><path fill="#F5F6F7" d="M0 64v-9h34v9c0 5.2-7.7 9-17 9S0 69.2 0 64z"/><path fill="#00E0B4" d="M2 57v7c0 3.7 6.6 7 15 7s15-3.3 15-7v-7H2zm-2 7v-9h34v9c0 5.2-7.7 9-17 9S0 69.2 0 64z"/><path fill="#F5F6F7" d="M17 64c-9.3 0-17-3.8-17-9s7.7-9 17-9 17 3.8 17 9-7.7 9-17 9z"/><path fill="#00E0B4" d="M17 64c-9.3 0-17-3.8-17-9s7.7-9 17-9 17 3.8 17 9-7.7 9-17 9zm0-2c8.4 0 15-3.3 15-7s-6.6-7-15-7-15 3.3-15 7 6.6 7 15 7z"/><g><path fill="#F5F6F7" d="M0 55v-9h34v9c0 5.2-7.7 9-17 9S0 60.2 0 55z"/><path fill="#00E0B4" d="M2 48v7c0 3.7 6.6 7 15 7s15-3.3 15-7v-7H2zm-2 7v-9h34v9c0 5.2-7.7 9-17 9S0 60.2 0 55z"/><path fill="#F5F6F7" d="M17 55c-9.3 0-17-3.8-17-9s7.7-9 17-9 17 3.8 17 9-7.7 9-17 9z"/><path fill="#00E0B4" d="M17 55c-9.3 0-17-3.8-17-9s7.7-9 17-9 17 3.8 17 9-7.7 9-17 9zm0-2c8.4 0 15-3.3 15-7s-6.6-7-15-7-15 3.3-15 7 6.6 7 15 7z"/></g></g></svg>