<svg xmlns="http://www.w3.org/2000/svg" viewBox="0 0 48 48"><g transform="translate(0 7)"><path d="M48 12V0c0-2.2-1.8-4-4-4H4C1.8-4 0-2.2 0 0v26c0 2.2 1.8 4 4 4h17v-2H4c-1.1 0-2-.9-2-2V0c0-1.1.9-2 2-2h40c1.1 0 2 .9 2 2v12h2zm0-12c0-2.2-1.8-4-4-4H4C1.8-4 0-2.2 0 0v26c0 2.2 1.8 4 4 4h17v-2H4c-1.1 0-2-.9-2-2V0c0-1.1.9-2 2-2h40c1.1 0 2 .9 2 2v12h2V0z"/><circle cx="21" cy="29" r="1"/><circle cx="47" cy="12" r="1"/><path d="M2 4h44v2H2z"/></g><path d="M28 32.594v5.7c0 1.8 4 3.7 9 3.7s9-1.9 9-3.7v-5.7h2v5.7c0 3.4-5 5.7-11 5.7s-11-2.3-11-5.7v-5.7h2z"/><path d="M28 27.3V33c0 1.8 4 3.7 9 3.7s9-1.9 9-3.7v-5.7h2V33c0 3.4-5 5.7-11 5.7S26 36.4 26 33v-5.7h2z"/><path d="M37 33.4c-6 0-11-2.3-11-5.7S31 22 37 22s11 2.3 11 5.7-5 5.7-11 5.7zm0-2c5 0 9-1.9 9-3.7S42 24 37 24s-9 1.9-9 3.7 4 3.7 9 3.7z"/></svg>