<svg xmlns="http://www.w3.org/2000/svg" viewBox="0 0 48 48"><path d="M27 2.2c-1.8.4-3.9 1.6-5.2 3.1-1.4 1.6-2.3 3.7-2.3 5.6 1.9-.2 3.8-1.3 5.2-2.9 1.4-1.8 2.2-3.8 2.3-5.8zm-8.5 10.7c-.5 0-.9-.4-.9-.9-.4-2.8.8-5.8 2.7-8.1C22.2 1.7 25.3.1 28 0c.5 0 1 .4 1.1.9.3 2.9-.7 5.9-2.7 8.3-2 2.4-5.1 3.9-7.9 3.7z"/><path d="M34.3 16.9c-1.7-1.7-3.9-2.4-5.9-2.5h-.1c-1.3-.1-2.6.2-4.5.9-.2.1-.3.1-.5.2-.3.1-.4.2-.5.2-.4.2-.7.3-1 .4-.9.3-1.5.5-2.2.5-.7 0-1.4-.1-2.2-.4-.3-.1-.6-.2-1-.4-.2-.1-.8-.3-1-.4-1.6-.6-2.6-.9-3.6-.9-3.2 0-6.3 1.9-8 4.9C.5 25 2.2 34.5 6.6 40.9c2.5 3.7 4.1 5.1 5.6 5.1.8 0 1.4-.2 2.4-.6.1 0 .2-.1.4-.2 1.9-.8 3.1-1.1 5-1.1 1.8 0 3 .3 4.8 1.1.2.1.3.1.4.2 1.1.5 1.7.6 2.5.6 1.7 0 3-1.2 5.5-4.9 1-1.5 1.8-3.1 2.5-4.7-3.1-2.4-4.9-6.1-4.9-10.1 0-3.4 1.4-6.6 3.7-9 0-.2-.1-.3-.2-.4zm3.1.6c-2.7 2-4.5 5.2-4.5 8.8 0 4 2.1 7.4 5.3 9.3-.1.3-.3.7-.4 1-.5 1.2-1.4 3.4-2.9 5.6-2 2.9-4 5.7-7.2 5.8-3.1.1-4.2-1.9-7.8-1.9-3.6 0-4.7 1.8-7.7 1.9-3.1.1-5.4-3.1-7.4-5.9-4-5.8-7.1-16.5-3-23.7 2.1-3.6 5.7-5.8 9.7-5.9 3-.1 5.9 2 7.8 2 1.9 0 5.3-2.5 9-2.2 1.3.1 4.6.5 7.3 3.1.4.4.7.7 1 1.1.3.3.6.6.8 1z"/></svg>