<svg xmlns="http://www.w3.org/2000/svg" viewBox="0 0 48 48"><path d="M24 35c-6.1 0-11-4.9-11-11s4.9-11 11-11 11 4.9 11 11-4.9 11-11 11zm0-2c5 0 9-4 9-9s-4-9-9-9-9 4-9 9 4 9 9 9z"/><path d="M33 24h2v4.5c0 3 2.5 5.5 5.5 5.5s5.5-2.5 5.5-5.5V27h2v1.5c0 4.1-3.4 7.5-7.5 7.5S33 32.6 33 28.5V24z"/><path d="M24 0c.6 0 1 .4 1 1s-.4 1-1 1C11.8 2 2 11.8 2 24s9.8 22 22 22h17c.6 0 1 .4 1 1s-.4 1-1 1H24C10.7 48 0 37.3 0 24S10.7 0 24 0z"/><path d="M24 0c-.6 0-1 .4-1 1s.4 1 1 1c12.2 0 22 9.8 22 22v3c0 .6.4 1 1 1s1-.4 1-1v-3C48 10.7 37.3 0 24 0z"/></svg>