<svg xmlns="http://www.w3.org/2000/svg" viewBox="0 0 48 48"><path d="M29 37v-2h15c1.1 0 2-.9 2-2V5c0-1.1-.9-2-2-2H4c-1.1 0-2 .9-2 2v28c0 1.1.9 2 2 2h20v2H4c-2.2 0-4-1.8-4-4V5c0-2.2 1.8-4 4-4h40c2.2 0 4 1.8 4 4v28c0 2.2-1.8 4-4 4H29zm0 0v-2h15c1.1 0 2-.9 2-2V5c0-1.1-.9-2-2-2H4c-1.1 0-2 .9-2 2v28c0 1.1.9 2 2 2h20v2H4c-2.2 0-4-1.8-4-4V5c0-2.2 1.8-4 4-4h40c2.2 0 4 1.8 4 4v28c0 2.2-1.8 4-4 4H29zM15 46h19-19zm0-1h19c.6 0 1 .4 1 1s-.4 1-1 1H15c-.6 0-1-.4-1-1s.4-1 1-1z"/><path d="M24 36v6-6zm0-1c.6 0 1 .4 1 1v6c0 .6-.4 1-1 1s-1-.4-1-1v-6c0-.6.4-1 1-1z"/><circle cx="29" cy="36" r="1"/><path d="M18.1 21.1c-.2.2-.3.4-.3.6l-.5 3.3 3.3-.5c.2 0 .4-.1.6-.3l9.8-9.8c.4-.4.4-1 0-1.4l-1.7-1.7c-.4-.4-1-.4-1.4 0l-9.8 9.8zm-1.4-1.4l9.8-9.8c1.2-1.2 3.1-1.2 4.2 0l1.7 1.7c1.2 1.2 1.2 3.1 0 4.2l-9.8 9.8c-.5.5-1.1.8-1.7.8l-5.9.9.8-5.9c.1-.7.4-1.3.9-1.7z"/></svg>