<svg xmlns="http://www.w3.org/2000/svg" viewBox="0 0 48 48"><path d="M1 48c-.6 0-1-.4-1-1s.4-1 1-1h46c.6 0 1 .4 1 1s-.4 1-1 1H1zM40 7V2H8v5h32zM8 0h32c1.1 0 2 .9 2 2v7H6V2c0-1.1.9-2 2-2zM3 8c0-.6.4-1 1-1s1 .4 1 1v35c0 .6-.4 1-1 1s-1-.4-1-1V8zM43 8c0-.6.4-1 1-1s1 .4 1 1v35c0 .6-.4 1-1 1s-1-.4-1-1V8z"/><path d="M4 7h40c.6 0 1 .4 1 1s-.4 1-1 1H4c-.6 0-1-.4-1-1s.4-1 1-1zM10 15h28c.6 0 1 .4 1 1s-.4 1-1 1H10c-.6 0-1-.4-1-1s.4-1 1-1zM21 31v12c0 .6-.4 1-1 1s-1-.4-1-1V30c0-.6.4-1 1-1h8c.6 0 1 .4 1 1v13c0 .6-.4 1-1 1s-1-.4-1-1V31h-6z"/></svg>