<svg xmlns="http://www.w3.org/2000/svg" viewBox="0 0 48 48"><path d="M17.3 6.7v6.9h5.9V6.7h-5.9zm-.4-2h6.9c.8 0 1.5.7 1.5 1.5v7.9c0 .8-.7 1.5-1.5 1.5h-6.9c-.8 0-1.5-.7-1.5-1.5V6.2c0-.9.6-1.5 1.5-1.5z"/><path d="M25.3 2.7v10.9h5.9V2.7h-5.9zm-.5-2h6.9c.8 0 1.5.7 1.5 1.5v11.9c0 .8-.7 1.5-1.5 1.5h-6.9c-.8 0-1.5-.7-1.5-1.5V2.2c0-.8.7-1.5 1.5-1.5z"/><path d="M33.2 9.6v4h5.9v-4h-5.9zm-.5-2h6.9c.8 0 1.5.7 1.5 1.5v5c0 .8-.7 1.5-1.5 1.5h-6.9c-.8 0-1.5-.7-1.5-1.5v-5c0-.8.7-1.5 1.5-1.5zM1.5 8.6c-.5 0-1-.4-1-1s.4-1 1-1h5c2.7 0 3.6 1.3 4.4 4.7.2.8.9 3.4 3 10.4 2.1 7.1 2.8 9.6 3 10.4.6 2.3 1.6 3.2 4.5 3.2h17.8c.5 0 1 .4 1 1s-.4 1-1 1H21.3c-3.9 0-5.6-1.6-6.4-4.7-.2-.8-.9-3.4-3-10.4-2.1-7.1-2.8-9.6-3-10.4-.6-2.5-1-3.2-2.5-3.2H1.5zM20.8 45.3c.8 0 1.5-.7 1.5-1.5s-.7-1.5-1.5-1.5-1.5.7-1.5 1.5.7 1.5 1.5 1.5zm0 2c-1.9 0-3.5-1.6-3.5-3.5s1.6-3.5 3.5-3.5 3.5 1.6 3.5 3.5-1.6 3.5-3.5 3.5zM35.7 45.3c.8 0 1.5-.7 1.5-1.5s-.7-1.5-1.5-1.5-1.5.7-1.5 1.5.7 1.5 1.5 1.5zm0 2c-1.9 0-3.5-1.6-3.5-3.5s1.6-3.5 3.5-3.5 3.5 1.6 3.5 3.5-1.6 3.5-3.5 3.5z"/><path d="M11.4 15.6c-.5 0-1-.4-1-1s.4-1 1-1h33.1c1.6 0 3 1.3 3 3 0 .3 0 .5-.1.7-1.3 5.2-2.3 8.4-2.9 9.8-1.6 3.7-4.1 5.3-10.3 5.3H21.3c-.5 0-1-.4-1-1 0-.5.4-1 1-1h12.9c5.5 0 7.3-1.2 8.5-4.1.5-1.3 1.5-4.5 2.8-9.6v-.2c0-.5-.4-1-1-1l-33.1.1z"/></svg>