<svg xmlns="http://www.w3.org/2000/svg" viewBox="0 0 48 48"><path d="M20 48v-2h22V2H6v44h6v2H6c-1.1 0-2-.9-2-2V2c0-1.1.9-2 2-2h36c1.1 0 2 .9 2 2v44c0 1.1-.9 2-2 2H20zm0 0v-2h22V2H6v44h6v2H6c-1.1 0-2-.9-2-2V2c0-1.1.9-2 2-2h36c1.1 0 2 .9 2 2v44c0 1.1-.9 2-2 2H20z"/><path d="M13 32h22c.6 0 1 .4 1 1s-.4 1-1 1H13c-.6 0-1-.4-1-1s.4-1 1-1zM13 26h22c.6 0 1 .4 1 1s-.4 1-1 1H13c-.6 0-1-.4-1-1s.4-1 1-1zM13 37h16c.6 0 1 .4 1 1s-.4 1-1 1H13c-.6 0-1-.4-1-1s.4-1 1-1z"/><circle cx="12" cy="47" r="1"/><circle cx="20" cy="47" r="1"/><path d="M19.5 16.1c.3-.2.6-.2.9 0l1.7.9-.3-1.9c-.1-.3.1-.7.3-.9l1.4-1.4-1.9-.3c-.3 0-.6-.3-.8-.5l-.8-1.7-.9 1.7c-.1.3-.4.5-.8.5l-1.9.3 1.4 1.4c.2.2.3.6.3.9l-.3 1.9 1.7-.9zm-2.6 3.6c-.7.4-1.6-.2-1.5-1.1l.6-3.4-2.5-2.4c-.6-.6-.3-1.6.6-1.7l3.4-.5L19 7.5c.4-.7 1.4-.7 1.8 0l1.5 3.1 3.4.5c.8.1 1.1 1.1.6 1.7l-2.5 2.4.6 3.4c.1.8-.7 1.4-1.5 1.1L20 18.1l-3.1 1.6z"/></svg>