<svg xmlns="http://www.w3.org/2000/svg" viewBox="0 0 48 48"><path d="M14 25v-7c0-1.7 1.3-3 3-3h15V4c0-1.1-.9-2-2-2H4c-1.1 0-2 .9-2 2v19c0 1.1.9 2 2 2h3v3l3.4-3H14zm-5.7 4.5C7 30.6 5 29.7 5 28v-1H4c-2.2 0-4-1.8-4-4V4c0-2.2 1.8-4 4-4h26c2.2 0 4 1.8 4 4v11c0 1.1-.9 2-2 2H17c-.6 0-1 .4-1 1v7c0 1.1-.9 2-2 2h-2.9l-2.8 2.5z"/><path d="M36.5 40H18c-1.1 0-2-.9-2-2V19c0-1.1.9-2 2-2h26c1.1 0 2 .9 2 2v19c0 1.1-.9 2-2 2h-3v4l-4.5-4zm3.2 5.5c1.3 1.1 3.3.2 3.3-1.5v-2h1c2.2 0 4-1.8 4-4V19c0-2.2-1.8-4-4-4H18c-2.2 0-4 1.8-4 4v19c0 2.2 1.8 4 4 4h17.7l4 3.5z"/></svg>