<svg xmlns="http://www.w3.org/2000/svg" viewBox="0 0 48 48"><circle cx="47" cy="42" r="1"/><circle cx="47" cy="36" r="1"/><path d="M13 15h18c.6 0 1 .4 1 1s-.4 1-1 1H13c-.6 0-1-.4-1-1s.4-1 1-1zM13 23h8c.6 0 1 .4 1 1s-.4 1-1 1h-8c-.6 0-1-.4-1-1s.4-1 1-1zM27 23h8c.6 0 1 .4 1 1s-.4 1-1 1h-8c-.6 0-1-.4-1-1s.4-1 1-1zM13 31h17c.6 0 1 .4 1 1s-.4 1-1 1H13c-.6 0-1-.4-1-1s.4-1 1-1z"/><path d="M33 19c-1.7 0-3-1.3-3-3s1.3-3 3-3 3 1.3 3 3-1.3 3-3 3zm0-2c.6 0 1-.4 1-1s-.4-1-1-1-1 .4-1 1 .4 1 1 1zM24 25c.6 0 1-.4 1-1s-.4-1-1-1-1 .4-1 1 .4 1 1 1zm0 2c-1.7 0-3-1.3-3-3s1.3-3 3-3 3 1.3 3 3-1.3 3-3 3zM33 33c.6 0 1-.4 1-1s-.4-1-1-1-1 .4-1 1 .4 1 1 1zm0 2c-1.7 0-3-1.3-3-3s1.3-3 3-3 3 1.3 3 3-1.3 3-3 3z"/><path d="M48 36V6c0-2.8-2.2-5-5-5H5C2.2 1 0 3.2 0 6v36c0 2.8 2.2 5 5 5h38c2.8 0 5-2.2 5-5h-2c0 1.7-1.3 3-3 3H5c-1.7 0-3-1.3-3-3V6c0-1.7 1.3-3 3-3h38c1.7 0 3 1.3 3 3v30h2z"/></svg>