<svg id="Слой_1" xmlns="http://www.w3.org/2000/svg" viewBox="0 0 96 48"><style>.st0{fill:#57c1a6}</style><g id="icon_x2F_Show"><path id="Combined-Shape" class="st0" d="M94 14.9L74.3 28.6c-1.4 1-3.2 1-4.6 0L50 14.9V37c0 1.1.9 2 2 2h3c.6 0 1 .4 1 1s-.4 1-1 1h-3c-2.2 0-4-1.8-4-4V11c0-2.2 1.8-4 4-4h40c2.2 0 4 1.8 4 4v26c0 2.2-1.8 4-4 4H62c-.6 0-1-.4-1-1s.4-1 1-1h30c1.1 0 2-.9 2-2V14.9zm0-2.4V11c0-1.1-.9-2-2-2H52c-1.1 0-2 .9-2 2v1.5L70.9 27c.7.5 1.6.5 2.3 0L94 12.5zM1 23h20c.6 0 1 .4 1 1s-.4 1-1 1H1c-.6 0-1-.4-1-1s.4-1 1-1zm14-10h20c.6 0 1 .4 1 1s-.4 1-1 1H15c-.6 0-1-.4-1-1s.4-1 1-1zm0 20h20c.6 0 1 .4 1 1s-.4 1-1 1H15c-.6 0-1-.4-1-1s.4-1 1-1z"/></g></svg>