<svg xmlns="http://www.w3.org/2000/svg" viewBox="0 0 48 48"><path d="M3.2 14.5l1.1 1.7-1.5 1c-.7.5-.8.8-.8 1.9V42c0 1.4 1.1 2.6 2.4 2.6h39.3c1.3 0 2.4-1.1 2.4-2.6V19.1c0-1.4-.1-1.6-2.5-3l1-1.7c2.6 1.5 3.5 2.2 3.5 4.7V42c0 2.5-2 4.6-4.4 4.6H4.4C2 46.6 0 44.6 0 42V19.1c0-2.6 1-3.2 3.2-4.6z"/><path d="M3 14.6c.7-.4 4.6-2.9 5.7-3.6l1.1 1.7c-1 .7-5 3.2-5.7 3.6L3 14.6zm29.9-5.1l-9-5.6c-1.4 1-4.3 2.8-8.6 5.6l-1.1-1.7c4.9-3.1 8-5.1 9-5.9l.5-.4L34 7.8l-1.1 1.7zm7 2c.2.1 4 2.5 5.7 3.5l-1.1 1.7c-1.7-1.1-5.5-3.4-5.7-3.5l1.1-1.7zM.4 22.3l1.1-1.6 21.3 14.8c.7.5 1.6.5 2.3 0l21.3-14.8 1.1 1.6-21.2 14.8c-1.4 1-3.2 1-4.6 0L.4 22.3z"/><path d="M38 21.5v-12H10v12H8v-12c0-1.1.9-2 2-2h28c1.1 0 2 .9 2 2v12h-2zm0 0v-12H10v12H8v-12c0-1.1.9-2 2-2h28c1.1 0 2 .9 2 2v12h-2z"/><circle cx="9" cy="21.5" r="1"/><circle cx="39" cy="21.5" r="1"/></svg>