<svg xmlns="http://www.w3.org/2000/svg" viewBox="0 0 48 48"><path d="M3.2 14l1.1 1.7-1.5 1c-.7.5-.8.8-.8 1.9v22.9C2 42.9 3.1 44 4.4 44h39.3c1.3 0 2.4-1.1 2.4-2.6V18.6c0-1.4-.1-1.6-2.5-3l1-1.7C47 15.4 48 16 48 18.6v22.9c0 2.5-2 4.6-4.4 4.6H4.4C2 46 0 44 0 41.4V18.6C0 16 1 15.4 3.2 14z"/><path d="M3 14.1c.7-.4 4.6-2.9 5.7-3.6l1.1 1.7c-1 .7-5 3.2-5.7 3.6L3 14.1zM32.9 9l-9-5.6c-1.4 1-4.3 2.8-8.6 5.6l-1.1-1.7c4.9-3.1 8-5.1 9-5.9l.7-.4L34 7.3 32.9 9zm7 2c.2.1 4 2.5 5.7 3.5l-1.1 1.7c-1.7-1.1-5.5-3.4-5.7-3.5l1.1-1.7z"/><path fill="none" stroke="#00e0b4" stroke-width="2" d="M1 21l21.3 14.8c1 .7 2.4.7 3.4 0L47 21M9 20h30V9c0-.6-.4-1-1-1H10c-.6 0-1 .4-1 1v11z"/><circle cx="9" cy="21" r="1"/><circle cx="39" cy="21" r="1"/></svg>