<svg xmlns="http://www.w3.org/2000/svg" viewBox="0 0 96 48"><path d="M1 23h20c.6 0 1 .4 1 1s-.4 1-1 1H1c-.6 0-1-.4-1-1s.4-1 1-1zM15 13h20c.6 0 1 .4 1 1s-.4 1-1 1H15c-.6 0-1-.4-1-1s.4-1 1-1zM15 33h20c.6 0 1 .4 1 1s-.4 1-1 1H15c-.6 0-1-.4-1-1s.4-1 1-1z"/><g transform="translate(48 7)"><path d="M14 34h30c2.2 0 4-1.8 4-4V4c0-2.2-1.8-4-4-4H4C1.8 0 0 1.8 0 4v26c0 2.2 1.8 4 4 4h3v-2H4c-1.1 0-2-.9-2-2V4c0-1.1.9-2 2-2h40c1.1 0 2 .9 2 2v26c0 1.1-.9 2-2 2H14v2z"/><circle cx="7" cy="33" r="1"/><circle cx="14" cy="33" r="1"/><path d="M.4 6.8l1.1-1.6L22.9 20c.7.5 1.6.5 2.3 0L46.4 5.2l1.1 1.6-21.2 14.8c-1.4 1-3.2 1-4.6 0L.4 6.8z"/></g></svg>