<svg xmlns="http://www.w3.org/2000/svg" viewBox="0 0 48 48"><path d="M9 17H5c-1.7 0-3 1.3-3 3s1.3 3 3 3h4v2H5c-2.8 0-5-2.2-5-5s2.2-5 5-5h4v2zm0 0v-2H5c-2.8 0-5 2.2-5 5s2.2 5 5 5h4v-2H5c-1.7 0-3-1.3-3-3s1.3-3 3-3h4zM41 23v-6h2c1.7 0 3 1.3 3 3s-1.3 3-3 3h-2zm2-8h-4v10h4c2.8 0 5-2.2 5-5s-2.2-5-5-5z"/><path d="M12 11c-1.7 0-3 1.3-3 3v11c0 1.7 1.3 3 3 3h10.5c3.6 0 7.1 1.3 9.9 3.7l6.6 5.8V2.1l-6.7 5.5c-2.7 2.2-6 3.4-9.5 3.4H12zm0-2h10.8c3 0 5.9-1 8.2-2.9L37.7.6c.9-.7 2.1-.6 2.8.3.3.3.5.7.5 1.2v35.4c0 1.1-.9 2-2 2-.5 0-1-.2-1.3-.5l-6.6-5.8c-2.4-2.1-5.4-3.2-8.6-3.2H12c-2.8 0-5-2.2-5-5V14c0-2.8 2.2-5 5-5z"/><path d="M17 33v11c0 1.1.9 2 2 2s2-.9 2-2V33h2v11c0 2.2-1.8 4-4 4s-4-1.8-4-4V33h2zM21 14h2v11h-2z"/><circle cx="16" cy="33" r="1"/><circle cx="22" cy="33" r="1"/><circle cx="22" cy="14" r="1"/><circle cx="22" cy="25" r="1"/></svg>