<svg xmlns="http://www.w3.org/2000/svg" viewBox="0 0 48 48"><path d="M33 36h9c2.2 0 4-1.8 4-4V6c0-2.2-1.8-4-4-4H6C3.8 2 2 3.8 2 6v26c0 2.2 1.8 4 4 4h17.9l9.1 7.7V36zm2 2v7.8c0 .2-.1.5-.2.6-.4.4-1 .5-1.4.1L23.2 38H6c-3.3 0-6-2.7-6-6V6c0-3.3 2.7-6 6-6h36c3.3 0 6 2.7 6 6v26c0 3.3-2.7 6-6 6h-7z"/><path d="M12 13h2v12h-2zM21 13h2v12h-2zM27 13h2v12h-2z"/><path d="M29 14v4h4c1.1 0 2-.9 2-2s-.9-2-2-2h-4zm-1-2h5c2.2 0 4 1.8 4 4s-1.8 4-4 4h-6v-7c0-.6.4-1 1-1zM13 18h9v2h-9z"/><path d="M37.6 26h-2.4l-4-6.5 1.7-1.1 4.7 7.6z"/><circle cx="13" cy="25" r="1"/><circle cx="13" cy="13" r="1"/><circle cx="22" cy="13" r="1"/><circle cx="22" cy="25" r="1"/><circle cx="28" cy="25" r="1"/></svg>