<svg xmlns="http://www.w3.org/2000/svg" viewBox="0 0 48 48"><path d="M48 29V7c0-3.3-2.7-6-6-6H6C2.7 1 0 3.7 0 7v34c0 3.3 2.7 6 6 6h36c3.3 0 6-2.7 6-6v-2h-2v2c0 2.2-1.8 4-4 4H6c-2.2 0-4-1.8-4-4V7c0-2.2 1.8-4 4-4h36c2.2 0 4 1.8 4 4v22h2zm0 0V7c0-3.3-2.7-6-6-6H6C2.7 1 0 3.7 0 7v34c0 3.3 2.7 6 6 6h36c3.3 0 6-2.7 6-6v-2h-2v2c0 2.2-1.8 4-4 4H6c-2.2 0-4-1.8-4-4V7c0-2.2 1.8-4 4-4h36c2.2 0 4 1.8 4 4v22h2z"/><path d="M19.3 23.4L7.7 34.7c-.4.4-1 .4-1.4 0-.4-.4-.4-1 0-1.4l12.3-12c.4-.4 1-.4 1.4 0l9.8 9.6 4.6-4.5c.4-.4 1-.4 1.4 0l7 6.9c.4.4.4 1 0 1.4-.4.4-1 .4-1.4 0L35 28.5 30.4 33c-.4.4-1 .4-1.4 0l-9.7-9.6zM31 19c-2.2 0-4-1.8-4-4s1.8-4 4-4 4 1.8 4 4-1.8 4-4 4zm0-2c1.1 0 2-.9 2-2s-.9-2-2-2-2 .9-2 2 .9 2 2 2z"/><circle cx="47" cy="39" r="1"/><circle cx="47" cy="29" r="1"/></svg>