<svg xmlns="http://www.w3.org/2000/svg" viewBox="0 0 48 48"><path d="M48 8V7c0-3.3-2.7-6-6-6H6C2.7 1 0 3.7 0 7v34c0 3.3 2.7 6 6 6h36c3.3 0 6-2.7 6-6V13h-2v28c0 2.2-1.8 4-4 4H6c-2.2 0-4-1.8-4-4V7c0-2.2 1.8-4 4-4h36c2.2 0 4 1.8 4 4v1h2zm0 0V7c0-3.3-2.7-6-6-6H6C2.7 1 0 3.7 0 7v34c0 3.3 2.7 6 6 6h36c3.3 0 6-2.7 6-6V13h-2v28c0 2.2-1.8 4-4 4H6c-2.2 0-4-1.8-4-4V7c0-2.2 1.8-4 4-4h36c2.2 0 4 1.8 4 4v1h2z"/><circle cx="47" cy="8" r="1"/><path d="M6 12h41c.6 0 1 .4 1 1s-.4 1-1 1H6c-.6 0-1-.4-1-1s.4-1 1-1z"/><circle cx="6.5" cy="7.5" r="1.5"/><circle cx="11.5" cy="7.5" r="1.5"/><circle cx="16.5" cy="7.5" r="1.5"/><path d="M1 27h46v2H1z"/><path d="M23 28h2v18h-2zM7 34h11c.6 0 1 .4 1 1s-.4 1-1 1H7c-.6 0-1-.4-1-1s.4-1 1-1zM7 38h11c.6 0 1 .4 1 1s-.4 1-1 1H7c-.6 0-1-.4-1-1s.4-1 1-1z"/></svg>