<svg xmlns="http://www.w3.org/2000/svg" viewBox="0 0 37 37">
	<g>
		<path fill="#D2D3D3" class="st0" d="M12.4,2c-2,0-3.8,1.7-3.8,3.8v18.9c0,2,1.7,3.8,3.8,3.8h18.9c2,0,3.8-1.7,3.8-3.8V5.8c0-2-1.7-3.8-3.8-3.8H12.4z M12.4,1.1h18.9c2.6,0,4.8,2,4.8,4.8v18.9c0,2.6-2,4.8-4.8,4.8H12.4c-2.6,0-4.8-2-4.8-4.8V5.8C7.6,3.1,9.8,1.1,12.4,1.1z"/>
		<path fill="#D2D3D3" d="M5.8,8.6c-2,0-3.8,1.7-3.8,3.8v18.9c0,2,1.7,3.8,3.8,3.8h18.9c2,0,3.8-1.7,3.8-3.8V12.4c0-2-1.7-3.8-3.8-3.8C24.7,8.6,5.8,8.6,5.8,8.6z M5.8,7.6h18.9c2.6,0,4.8,2,4.8,4.8v18.9c0,2.6-2,4.8-4.8,4.8H5.8c-2.6,0-4.8-2-4.8-4.8V12.4C1.1,9.8,3.1,7.6,5.8,7.6z"/>
		<polygon fill="#1E1E1E" points="16.2,15.6 17.4,14.2 21.9,18.7 17.4,23.2 16.2,21.8 19.3,18.7"/>
	</g>
</svg>
