<svg xmlns="http://www.w3.org/2000/svg" viewBox="0 0 48 48"><path d="M2.5 15c0-.6.4-1 1-1s1 .4 1 1v28c0 .6-.4 1-1 1s-1-.4-1-1V15zM43.5 15c0-.6.4-1 1-1s1 .4 1 1v28c0 .6-.4 1-1 1s-1-.4-1-1V15zM10.5 30v10h27V30h-27zm0-2h27c1.1 0 2 .9 2 2v10c0 1.1-.9 2-2 2h-27c-1.1 0-2-.9-2-2V30c0-1.1.9-2 2-2zM1.5 48c-.6 0-1-.4-1-1s.4-1 1-1h45c.6 0 1 .4 1 1s-.4 1-1 1h-45z"/><path d="M4.6.6c.2-.5.8-.7 1.3-.5s.7.8.5 1.3c-2.3 5-3.6 8-3.9 8.9-.4 1.3 1.2 3.7 3.6 3.7 2.2 0 3.5-2 3.5-4 0-.6.4-1 1-1s1 .4 1 1c0 3-2 6-5.5 6C2.4 16-.2 12.3.7 9.7 1 8.6 2.3 5.6 4.6.6z"/><path d="M9.5 10c0-.6.4-1 1-1s1 .4 1 1c0 2 1.3 4 3.5 4s3.5-2 3.5-4c0-.6.4-1 1-1s1 .4 1 1c0 3-2 6-5.5 6s-5.5-3-5.5-6z"/><path d="M18.5 10c0-.6.4-1 1-1s1 .4 1 1c0 2 1.3 4 3.5 4s3.5-2 3.5-4c0-.6.4-1 1-1s1 .4 1 1c0 3-2 6-5.5 6s-5.5-3-5.5-6z"/><path d="M27.5 10c0-.6.4-1 1-1s1 .4 1 1c0 2 1.3 4 3.5 4s3.5-2 3.5-4c0-.6.4-1 1-1s1 .4 1 1c0 3-2 6-5.5 6s-5.5-3-5.5-6z"/><path d="M42.9.5c-.3-.5-.9-.6-1.4-.4s-.7.9-.4 1.4c2.6 4.9 4.1 7.9 4.4 8.8.4 1.3-1.2 3.7-3.6 3.7-2.2 0-3.5-2-3.5-4 0-.6-.4-1-1-1s-1 .4-1 1c0 3 2 6 5.5 6 3.7 0 6.3-3.7 5.4-6.3-.3-1.1-1.8-4.1-4.4-9.2z"/><path d="M5.5 2V0h37v2z"/></svg>