<svg xmlns="http://www.w3.org/2000/svg" viewBox="0 0 48 48"><path d="M9 34v-9H5.5C3.6 25 2 26.6 2 28.5v2C2 32.4 3.6 34 5.5 34H9zM5.5 23H10c.6 0 1 .4 1 1v11c0 .6-.4 1-1 1H5.5c-3 0-5.5-2.5-5.5-5.5v-2c0-3 2.5-5.5 5.5-5.5zM39 34v-9h3.5c1.9 0 3.5 1.6 3.5 3.5v2c0 1.9-1.6 3.5-3.5 3.5H39zm3.5-11H38c-.6 0-1 .4-1 1v11c0 .6.4 1 1 1h4.5c3 0 5.5-2.5 5.5-5.5v-2c0-3-2.5-5.5-5.5-5.5z"/><path d="M31 45v-2h3.2c4.9 0 7.8-3.3 7.8-7.2V15.3C42 8 36.3 2 29.4 2H18.6C11.7 2 6 8 6 15.3V35H4V15.3C4 6.9 10.6 0 18.6 0h10.7C37.4 0 44 6.9 44 15.3v20.4c0 4.1-2.9 9.2-9.8 9.2H31zm0 0v-2h3.2c4.9 0 7.8-3.3 7.8-7.2V15.3C42 8 36.3 2 29.4 2H18.6C11.7 2 6 8 6 15.3V35H4V15.3C4 6.9 10.6 0 18.6 0h10.7C37.4 0 44 6.9 44 15.3v20.4c0 4.1-2.9 9.2-9.8 9.2H31z"/><circle cx="31" cy="44" r="1"/><path d="M24 46c1.1 0 2-.9 2-2s-.9-2-2-2-2 .9-2 2 .9 2 2 2zm0 2c-2.2 0-4-1.8-4-4s1.8-4 4-4 4 1.8 4 4-1.8 4-4 4z"/></svg>