<svg xmlns="http://www.w3.org/2000/svg" viewBox="0 0 48 48"><path d="M29 37v-2h15c1.1 0 2-.9 2-2V5c0-1.1-.9-2-2-2H4c-1.1 0-2 .9-2 2v28c0 1.1.9 2 2 2h20v2H4c-2.2 0-4-1.8-4-4V5c0-2.2 1.8-4 4-4h40c2.2 0 4 1.8 4 4v28c0 2.2-1.8 4-4 4H29zm0 0v-2h15c1.1 0 2-.9 2-2V5c0-1.1-.9-2-2-2H4c-1.1 0-2 .9-2 2v28c0 1.1.9 2 2 2h20v2H4c-2.2 0-4-1.8-4-4V5c0-2.2 1.8-4 4-4h40c2.2 0 4 1.8 4 4v28c0 2.2-1.8 4-4 4H29zM15 46h19-19zm0-1h19c.6 0 1 .4 1 1s-.4 1-1 1H15c-.6 0-1-.4-1-1s.4-1 1-1z"/><path d="M14 17c-1.7 0-3 1.3-3 3s1.3 3 3 3h20c1.7 0 3-1.3 3-3s-1.3-3-3-3H14zm0-2h20c2.8 0 5 2.2 5 5s-2.2 5-5 5H14c-2.8 0-5-2.2-5-5s2.2-5 5-5z"/><path d="M14 20h15-15zm0-1h15c.6 0 1 .4 1 1s-.4 1-1 1H14c-.6 0-1-.4-1-1s.4-1 1-1zM24 36v6-6zm0-1c.6 0 1 .4 1 1v6c0 .6-.4 1-1 1s-1-.4-1-1v-6c0-.6.4-1 1-1z"/><circle cx="29" cy="36" r="1"/></svg>