<svg xmlns="http://www.w3.org/2000/svg" viewBox="0 0 20 20"><path d="M19.8 14.3c-.3-.6-1-1.3-2-2.2-.5-.4-.7-.7-.9-.8-.2-.3-.3-.5-.1-.8.1-.2.4-.6.9-1.3.3-.4.5-.6.7-.8 1.2-1.5 1.7-2.5 1.6-2.9l-.1-.1c0-.1-.1-.1-.3-.2-.2 0-.4-.1-.7 0h-3-.4l-.1.1s-.1.1-.1.2c-.3.8-.7 1.5-1.1 2.2-.3.4-.5.8-.7 1.1-.3.2-.5.5-.6.6-.1.1-.3.3-.4.3-.1.1-.2.1-.3.1H12c-.1-.1-.2-.1-.2-.2-.1-.1-.1-.2-.1-.4v-.4-.5-.4-.8-.7-.5-.5c0-.1-.1-.2-.1-.3 0-.1-.1-.2-.2-.2-.1-.1-.2-.1-.3-.1-.4-.1-.8-.1-1.4-.1-1.3 0-2.1.1-2.5.2-.2 0-.3.1-.5.2-.1.1-.1.2 0 .2.4.1.7.2.9.4l.1.1c0 .1.1.2.1.5 0 .2.1.5.1.7v1.2c0 .3-.1.6-.1.8 0 .2-.1.3-.1.5-.1.2-.2.3-.2.3h-.4c-.1 0-.2 0-.4-.1l-.3-.3c-.2-.2-.3-.4-.5-.7-.2-.3-.4-.6-.6-1l-.2-.3c-.1-.2-.2-.5-.4-.8-.2-.4-.3-.7-.5-1 0-.2-.1-.3-.2-.4h-.1s-.1-.1-.2-.1c0 0-.1-.1-.2-.1H.7c-.3 0-.5.1-.6.2V5.5c0 .1 0 .2.1.3.4.9.9 1.8 1.4 2.7s.9 1.6 1.3 2.1.7 1 1.1 1.5c.4.5.6.8.7.9l.3.3.3.2c.2.2.4.4.7.6.3.2.7.4 1.1.7.4.2.8.4 1.4.5.5.1 1 .2 1.5.2h1c.2 0 .4-.1.6-.2 0 0 .1-.1.1-.2v-.3c0-.3 0-.5.1-.8.1-.2.1-.4.2-.5.1-.1.1-.2.2-.3.1-.1.1-.1.2-.1h.1c.2-.1.4 0 .6.2.2.2.4.3.6.6.2.2.4.5.7.8.3.3.5.5.7.6l.2.1c.1.1.3.2.5.2.2.1.4.1.6 0h2.7c.3 0 .5 0 .6-.1l.3-.3v-.3c0-.1 0-.2-.1-.3 0-.3-.1-.3-.1-.3z"/></svg>