<svg width="54" height="73" xmlns="http://www.w3.org/2000/svg" viewBox="0 0 54 73">
	<g>
		<g transform="translate(20.000000, 0.000000)">
			<g transform="translate(0.000000, 36.000000)">
				<path fill="#F5F6F7" d="M0,18V9h34v9c0,5.2-7.7,9-17,9S0,23.2,0,18z"/>
				<path fill="#00E0B4" d="M2,11v7c0,3.7,6.6,7,15,7s15-3.3,15-7v-7H2z M0,18V9h34v9c0,5.2-7.7,9-17,9S0,23.2,0,18z"/>
				<path fill="#F5F6F7" d="M17,18C7.7,18,0,14.2,0,9s7.7-9,17-9s17,3.8,17,9S26.3,18,17,18z"/>
				<path fill="#00E0B4" d="M17,18C7.7,18,0,14.2,0,9s7.7-9,17-9s17,3.8,17,9S26.3,18,17,18z M17,16c8.4,0,15-3.3,15-7s-6.6-7-15-7S2,5.3,2,9S8.6,16,17,16z"/>
			</g>
			<g transform="translate(0.000000, 27.000000)">
				<path fill="#F5F6F7" d="M0,18V9h34v9c0,5.2-7.7,9-17,9S0,23.2,0,18z"/>
				<path fill="#00E0B4" d="M2,11v7c0,3.7,6.6,7,15,7s15-3.3,15-7v-7H2z M0,18V9h34v9c0,5.2-7.7,9-17,9S0,23.2,0,18z"/>
				<path fill="#F5F6F7" d="M17,18C7.7,18,0,14.2,0,9s7.7-9,17-9s17,3.8,17,9S26.3,18,17,18z"/>
				<path fill="#00E0B4" d="M17,18C7.7,18,0,14.2,0,9s7.7-9,17-9s17,3.8,17,9S26.3,18,17,18z M17,16c8.4,0,15-3.3,15-7s-6.6-7-15-7S2,5.3,2,9S8.6,16,17,16z"/>
			</g>
			<g transform="translate(0.000000, 18.000000)">
				<path fill="#F5F6F7" d="M0,18V9h34v9c0,5.2-7.7,9-17,9S0,23.2,0,18z"/>
				<path fill="#00E0B4" d="M2,11v7c0,3.7,6.6,7,15,7s15-3.3,15-7v-7H2z M0,18V9h34v9c0,5.2-7.7,9-17,9S0,23.2,0,18z"/>
				<path fill="#F5F6F7" d="M17,18C7.7,18,0,14.2,0,9s7.7-9,17-9s17,3.8,17,9S26.3,18,17,18z"/>
				<path fill="#00E0B4" d="M17,18C7.7,18,0,14.2,0,9s7.7-9,17-9s17,3.8,17,9S26.3,18,17,18z M17,16c8.4,0,15-3.3,15-7s-6.6-7-15-7S2,5.3,2,9S8.6,16,17,16z"/>
			</g>
			<g transform="translate(0.000000, 9.000000)">
				<path fill="#F5F6F7" d="M0,18V9h34v9c0,5.2-7.7,9-17,9S0,23.2,0,18z"/>
				<path fill="#00E0B4" d="M2,11v7c0,3.7,6.6,7,15,7s15-3.3,15-7v-7H2z M0,18V9h34v9c0,5.2-7.7,9-17,9S0,23.2,0,18z"/>
				<path fill="#F5F6F7" d="M17,18C7.7,18,0,14.2,0,9s7.7-9,17-9s17,3.8,17,9S26.3,18,17,18z"/>
				<path fill="#00E0B4" d="M17,18C7.7,18,0,14.2,0,9s7.7-9,17-9s17,3.8,17,9S26.3,18,17,18z M17,16c8.4,0,15-3.3,15-7s-6.6-7-15-7S2,5.3,2,9S8.6,16,17,16z"/>
			</g>
			<g>
				<path fill="#F5F6F7" d="M0,18V9h34v9c0,5.2-7.7,9-17,9S0,23.2,0,18z"/>
				<path fill="#00E0B4" d="M2,11v7c0,3.7,6.6,7,15,7s15-3.3,15-7v-7H2z M0,18V9h34v9c0,5.2-7.7,9-17,9S0,23.2,0,18z"/>
				<path fill="#F5F6F7" d="M17,18C7.7,18,0,14.2,0,9s7.7-9,17-9s17,3.8,17,9S26.3,18,17,18z"/>
				<path fill="#00E0B4" d="M17,18C7.7,18,0,14.2,0,9s7.7-9,17-9s17,3.8,17,9S26.3,18,17,18z M17,16c8.4,0,15-3.3,15-7s-6.6-7-15-7S2,5.3,2,9S8.6,16,17,16z"/>
			</g>
		</g>
		<g transform="translate(0.000000, 37.000000)">
			<g transform="translate(0.000000, 9.000000)">
				<path fill="#F5F6F7" d="M0,18V9h34v9c0,5.2-7.7,9-17,9S0,23.2,0,18z"/>
				<path fill="#00E0B4" d="M2,11v7c0,3.7,6.6,7,15,7s15-3.3,15-7v-7H2z M0,18V9h34v9c0,5.2-7.7,9-17,9S0,23.2,0,18z"/>
				<path fill="#F5F6F7" d="M17,18C7.7,18,0,14.2,0,9s7.7-9,17-9s17,3.8,17,9S26.3,18,17,18z"/>
				<path fill="#00E0B4" d="M17,18C7.7,18,0,14.2,0,9s7.7-9,17-9s17,3.8,17,9S26.3,18,17,18z M17,16c8.4,0,15-3.3,15-7s-6.6-7-15-7S2,5.3,2,9S8.6,16,17,16z"/>
			</g>
			<g>
				<path fill="#F5F6F7" d="M0,18V9h34v9c0,5.2-7.7,9-17,9S0,23.2,0,18z"/>
				<path fill="#00E0B4" d="M2,11v7c0,3.7,6.6,7,15,7s15-3.3,15-7v-7H2z M0,18V9h34v9c0,5.2-7.7,9-17,9S0,23.2,0,18z"/>
				<path fill="#F5F6F7" d="M17,18C7.7,18,0,14.2,0,9s7.7-9,17-9s17,3.8,17,9S26.3,18,17,18z"/>
				<path fill="#00E0B4" d="M17,18C7.7,18,0,14.2,0,9s7.7-9,17-9s17,3.8,17,9S26.3,18,17,18z M17,16c8.4,0,15-3.3,15-7s-6.6-7-15-7S2,5.3,2,9S8.6,16,17,16z"/>
			</g>
		</g>
	</g>
</svg>
