<svg viewBox="0 0 103 52" xmlns="http://www.w3.org/2000/svg">
  <g>
    <rect fill="#00E0B4" x="0" y="0" width="67.173913" height="42.2028986" rx="2.98550725"></rect>
    <rect fill="#4740E3" x="35.826087" y="9.79710145" width="67.173913" height="42.2028986" rx="2.98550725"></rect>
    <path d="M28.4717011,19.8202899 C28.4717011,19.292751 28.7267106,19.0289855 29.2367373,19.0289855 L30.0950707,19.0289855 C30.6050974,19.0289855 30.8601069,19.292751 30.8601069,19.8202899 L30.8601069,31.6144928 C30.8601069,32.1420316 30.6050974,32.4057971 30.0950707,32.4057971 L29.2367373,32.4057971 C28.7267106,32.4057971 28.4717011,32.1420316 28.4717011,31.6144928 L28.4717011,19.8202899 Z" fill="#FFFFFF"></path>
    <path d="M39.7767356,25.773913 C39.7767356,24.7816376 39.9477785,23.8584584 40.2898696,23.0043478 C40.6319607,22.1502373 41.1077712,21.4123219 41.7173153,20.7905797 C42.3268594,20.1688375 43.0483497,19.6821274 43.881808,19.3304348 C44.7152663,18.9787422 45.6295687,18.8028986 46.6247428,18.8028986 C47.1720885,18.8028986 47.6789977,18.8468595 48.1454856,18.9347826 C48.6119734,19.0227058 49.0286963,19.132608 49.3956667,19.2644928 C49.7626371,19.3963775 50.0798441,19.5314003 50.3472971,19.6695652 C50.6147502,19.8077302 50.8168919,19.9270526 50.9537283,20.0275362 C51.3393583,20.328987 51.395336,20.6932346 51.1216631,21.1202899 L50.7857935,21.6478261 C50.6489571,21.8613537 50.4934635,21.9838163 50.319308,22.0152174 C50.1451526,22.0466185 49.939901,21.9932374 49.7035471,21.8550725 C49.4174346,21.6792262 49.0318104,21.4971024 48.5466631,21.3086957 C48.0615157,21.1202889 47.4644203,21.026087 46.7553587,21.026087 C46.0338575,21.026087 45.3932239,21.1485495 44.8334384,21.3934783 C44.273653,21.638407 43.8040623,21.9712539 43.4246522,22.392029 C43.0452421,22.812804 42.756024,23.3057943 42.5569892,23.8710145 C42.3579544,24.4362347 42.2584384,25.0328471 42.2584384,25.6608696 C42.2584384,26.3642547 42.3735037,27.0079681 42.6036377,27.592029 C42.8337717,28.1760899 43.1478688,28.6753602 43.5459384,29.0898551 C43.9440081,29.5043499 44.4104889,29.8277766 44.945395,30.0601449 C45.480301,30.2925132 46.0587373,30.4086957 46.6807211,30.4086957 C47.2405065,30.4086957 47.7287564,30.3333341 48.1454856,30.1826087 C48.5622147,30.0318833 48.9136303,29.8623198 49.1997428,29.673913 C49.5231744,29.4603854 49.8030629,29.2154603 50.0394167,28.9391304 C50.0394167,28.3136134 50.0394167,27.9072775 50.0394167,27.7201228 C50.0394167,27.5765207 50.0394167,27.3611174 50.0394167,27.073913 L47.8219167,27.073913 C47.2994503,27.073913 47.038221,26.8101476 47.038221,26.2826087 L47.038221,25.773913 C47.038221,25.2463742 47.2994503,24.9826087 47.8219167,24.9826087 L51.4202138,24.9826087 C51.9302405,24.9826087 52.18525,25.2463742 52.18525,25.773913 C52.18525,26.0861135 52.18525,26.5194468 52.18525,27.073913 C52.18525,27.9056124 52.1166597,29.2031904 52.0425627,29.4970066 C51.8126455,30.4086957 50.8612246,31.2050321 50.3472971,31.5081097 C49.8333697,31.8111873 49.3422768,32.0954519 48.7507877,32.259249 C48.1592987,32.4230462 46.9232967,32.6318841 46.2888732,32.6318841 C45.4056563,32.6318841 44.5722105,32.4654606 43.7885109,32.1326087 C43.0048113,31.7997568 42.3144197,31.3318871 41.7173153,30.7289855 C41.1202108,30.1260839 40.6475102,29.4038689 40.2991993,28.5623188 C39.9508884,27.7207687 39.7767356,26.7913094 39.7767356,25.773913 Z" fill="#FFFFFF"></path>
    <path d="M59.7770598,19.8202899 C59.7770598,19.292751 60.0320694,19.0289855 60.5420961,19.0289855 L61.4004294,19.0289855 C61.9104561,19.0289855 62.1654656,19.292751 62.1654656,19.8202899 L62.1654656,31.6144928 C62.1654656,32.1420316 61.9104561,32.4057971 61.4004294,32.4057971 L60.5420961,32.4057971 C60.0320694,32.4057971 59.7770598,32.1420316 59.7770598,31.6144928 L59.7770598,19.8202899 Z" fill="#FFFFFF"></path>
    <path d="M71.8657899,19.8202899 C71.8657899,19.292751 72.1207995,19.0289855 72.6308262,19.0289855 L78.6951378,19.0289855 C79.2176041,19.0289855 79.4788334,19.292751 79.4788334,19.8202899 L79.4788334,20.3478261 C79.4788334,20.8628045 79.2176041,21.1202899 78.6951378,21.1202899 L74.2541957,21.1202899 L74.2541957,24.9072464 L77.8741233,24.9072464 C78.3965897,24.9072464 78.6578189,25.1647317 78.6578189,25.6797101 L78.6578189,26.2072464 C78.6578189,26.7347852 78.3965897,26.9985507 77.8741233,26.9985507 L74.2541957,26.9985507 L74.2541957,31.6144928 C74.2541957,32.1420316 73.9991862,32.4057971 73.4891595,32.4057971 L72.6308262,32.4057971 C72.1207995,32.4057971 71.8657899,32.1420316 71.8657899,31.6144928 L71.8657899,19.8202899 Z" fill="#FFFFFF"></path>
    <path d="M89.4963679,21.1202899 L85.9324186,21.1202899 C85.4099522,21.1202899 85.1487229,20.8628045 85.1487229,20.3478261 L85.1487229,19.8202899 C85.1487229,19.292751 85.4099522,19.0289855 85.9324186,19.0289855 L95.4487229,19.0289855 C95.9587496,19.0289855 96.2137592,19.292751 96.2137592,19.8202899 L96.2137592,20.3478261 C96.2137592,20.8628045 95.9587496,21.1202899 95.4487229,21.1202899 L91.8847737,21.1202899 L91.8847737,31.6144928 C91.8847737,32.1420316 91.6235444,32.4057971 91.101078,32.4057971 L90.2614041,32.4057971 C89.7513774,32.4057971 89.4963679,32.1420316 89.4963679,31.6144928 L89.4963679,21.1202899 Z" fill="#FFFFFF"></path>
    <path d="M9.74021739,19.8202899 C9.74021739,19.292751 9.99522692,19.0289855 10.5052536,19.0289855 L14.2557971,19.0289855 C15.2758505,19.0289855 16.2025925,19.1797086 17.0360507,19.4811594 C17.869509,19.7826102 18.5785599,20.2159392 19.1632246,20.7811594 C19.7478894,21.3463796 20.2019308,22.0434741 20.5253623,22.8724638 C20.8487939,23.7014534 21.0105072,24.643473 21.0105072,25.6985507 C21.0105072,26.7536285 20.8487939,27.695648 20.5253623,28.5246377 C20.2019308,29.3536273 19.7478894,30.0570019 19.1632246,30.6347826 C18.5785599,31.2125633 17.869509,31.6521724 17.0360507,31.9536232 C16.2025925,32.255074 15.2758505,32.4057971 14.2557971,32.4057971 L10.5052536,32.4057971 C9.99522692,32.4057971 9.74021739,32.1420316 9.74021739,31.6144928 L9.74021739,19.8202899 Z M14.1251812,30.3144928 C15.4686661,30.3144928 16.5384622,29.9219846 17.3346014,29.1369565 C18.1307407,28.3519284 18.5288043,27.2058046 18.5288043,25.6985507 C18.5288043,24.9574842 18.4230687,24.3012106 18.2115942,23.7297101 C18.0001197,23.1582097 17.701572,22.6809198 17.315942,22.2978261 C16.9303121,21.9147324 16.4669411,21.6227063 15.9258152,21.4217391 C15.3846893,21.2207719 14.784484,21.1202899 14.1251812,21.1202899 L12.1286232,21.1202899 L12.1286232,30.3144928 L14.1251812,30.3144928 Z" fill="#FFFFFF"></path>
  </g>
</svg>
