<svg xmlns="http://www.w3.org/2000/svg" viewBox="0 0 48 48">
	<g>
		<g transform="translate(0.000000, 7.000000)">
			<path d="M48,12V0c0-2.2-1.8-4-4-4H4C1.8-4,0-2.2,0,0v26c0,2.2,1.8,4,4,4h17v-2H4c-1.1,0-2-0.9-2-2V0c0-1.1,0.9-2,2-2h40c1.1,0,2,0.9,2,2v12H48z M48,0c0-2.2-1.8-4-4-4H4C1.8-4,0-2.2,0,0v26c0,2.2,1.8,4,4,4h17v-2H4c-1.1,0-2-0.9-2-2V0c0-1.1,0.9-2,2-2h40c1.1,0,2,0.9,2,2v12h2V0z"/>
			<circle cx="21" cy="29" r="1"/>
			<circle cx="47" cy="12" r="1"/>
			<rect x="2" y="4" width="44" height="2"/>
		</g>
		<g transform="translate(26.000000, 26.000000)">
			<g transform="translate(0.000000, 10.294118)">
				<path d="M2-3.7V2c0,1.8,4,3.7,9,3.7s9-1.9,9-3.7v-5.7h2V2c0,3.4-5,5.7-11,5.7S0,5.4,0,2v-5.7H2z"/>
			</g>
			<g>
				<path d="M2,1.3V7c0,1.8,4,3.7,9,3.7s9-1.9,9-3.7V1.3h2V7c0,3.4-5,5.7-11,5.7S0,10.4,0,7V1.3H2z"/>
				<path d="M11,7.4C5,7.4,0,5.1,0,1.7S5-4,11-4s11,2.3,11,5.7S17,7.4,11,7.4z M11,5.4c5,0,9-1.9,9-3.7S16-2,11-2S2-0.1,2,1.7S6,5.4,11,5.4z"/>
			</g>
		</g>
	</g>
</svg>
