<svg xmlns="http://www.w3.org/2000/svg" viewBox="0 0 48 48">
	<g>
		<path d="M27,29h10H27z M27,28h10c0.6,0,1,0.4,1,1s-0.4,1-1,1H27c-0.6,0-1-0.4-1-1S26.4,28,27,28z"/>
		<path d="M48,8V7c0-3.3-2.7-6-6-6H6C2.7,1,0,3.7,0,7v34c0,3.3,2.7,6,6,6h36c3.3,0,6-2.7,6-6V13h-2v28c0,2.2-1.8,4-4,4H6c-2.2,0-4-1.8-4-4V7c0-2.2,1.8-4,4-4h36c2.2,0,4,1.8,4,4v1H48z M48,8V7c0-3.3-2.7-6-6-6H6C2.7,1,0,3.7,0,7v34c0,3.3,2.7,6,6,6h36c3.3,0,6-2.7,6-6V13h-2v28c0,2.2-1.8,4-4,4H6c-2.2,0-4-1.8-4-4V7c0-2.2,1.8-4,4-4h36c2.2,0,4,1.8,4,4v1H48z"/>
		<path d="M6,12h41c0.6,0,1,0.4,1,1l0,0c0,0.6-0.4,1-1,1H6c-0.6,0-1-0.4-1-1l0,0C5,12.4,5.4,12,6,12z"/>
		<circle cx="6.5" cy="7.5" r="1.5"/>
		<circle cx="11.5" cy="7.5" r="1.5"/>
		<circle cx="16.5" cy="7.5" r="1.5"/>
		<path d="M12.3,22.7c-0.4-0.4-0.4-1,0-1.4c0.4-0.4,1-0.4,1.4,0l7.7,7.7l-7.7,7.7c-0.4,0.4-1,0.4-1.4,0c-0.4-0.4-0.4-1,0-1.4l6.3-6.3L12.3,22.7z"/>
		<circle cx="47" cy="8" r="1"/>
	</g>
</svg>
