<svg xmlns="http://www.w3.org/2000/svg" viewBox="0 0 48 48">
	<g>
		<path d="M27,2.2c-1.8,0.4-3.9,1.6-5.2,3.1c-1.4,1.6-2.3,3.7-2.3,5.6c1.9-0.2,3.8-1.3,5.2-2.9C26.1,6.2,26.9,4.2,27,2.2z M18.5,12.9c-0.5,0-0.9-0.4-0.9-0.9c-0.4-2.8,0.8-5.8,2.7-8.1c1.9-2.2,5-3.8,7.7-3.9c0.5,0,1,0.4,1.1,0.9c0.3,2.9-0.7,5.9-2.7,8.3C24.4,11.6,21.3,13.1,18.5,12.9z"/>
		<path d="M34.3,16.9c-1.7-1.7-3.9-2.4-5.9-2.5l-0.1,0c-1.3-0.1-2.6,0.2-4.5,0.9c-0.2,0.1-0.3,0.1-0.5,0.2c-0.3,0.1-0.4,0.2-0.5,0.2c-0.4,0.2-0.7,0.3-1,0.4c-0.9,0.3-1.5,0.5-2.2,0.5c-0.7,0-1.4-0.1-2.2-0.4c-0.3-0.1-0.6-0.2-1-0.4c-0.2-0.1-0.8-0.3-1-0.4c-1.6-0.6-2.6-0.9-3.6-0.9c-3.2,0-6.3,1.9-8,4.9C0.5,25,2.2,34.5,6.6,40.9c2.5,3.7,4.1,5.1,5.6,5.1c0.8,0,1.4-0.2,2.4-0.6c0.1,0,0.2-0.1,0.4-0.2c1.9-0.8,3.1-1.1,5-1.1c1.8,0,3,0.3,4.8,1.1c0.2,0.1,0.3,0.1,0.4,0.2c1.1,0.5,1.7,0.6,2.5,0.6c1.7,0,3-1.2,5.5-4.9c1-1.5,1.8-3.1,2.5-4.7c-3.1-2.4-4.9-6.1-4.9-10.1c0-3.4,1.4-6.6,3.7-9C34.5,17.1,34.4,17,34.3,16.9z M37.4,17.5c-2.7,2-4.5,5.2-4.5,8.8c0,4,2.1,7.4,5.3,9.3c-0.1,0.3-0.3,0.7-0.4,1c-0.5,1.2-1.4,3.4-2.9,5.6c-2,2.9-4,5.7-7.2,5.8c-3.1,0.1-4.2-1.9-7.8-1.9c-3.6,0-4.7,1.8-7.7,1.9c-3.1,0.1-5.4-3.1-7.4-5.9c-4-5.8-7.1-16.5-3-23.7c2.1-3.6,5.7-5.8,9.7-5.9c3-0.1,5.9,2,7.8,2c1.9,0,5.3-2.5,9-2.2c1.3,0.1,4.6,0.5,7.3,3.1c0.4,0.4,0.7,0.7,1,1.1C36.9,16.8,37.2,17.1,37.4,17.5z"/>
	</g>
</svg>
