<svg xmlns="http://www.w3.org/2000/svg" viewBox="0 0 48 48">
	<g>
		<path d="M24,35c-6.1,0-11-4.9-11-11s4.9-11,11-11s11,4.9,11,11S30.1,35,24,35z M24,33c5,0,9-4,9-9s-4-9-9-9s-9,4-9,9S19,33,24,33z"/>
		<path d="M33,24h2v4.5c0,3,2.5,5.5,5.5,5.5s5.5-2.5,5.5-5.5V27h2v1.5c0,4.1-3.4,7.5-7.5,7.5S33,32.6,33,28.5V24z"/>
		<path d="M24,0c0.6,0,1,0.4,1,1s-0.4,1-1,1C11.8,2,2,11.8,2,24s9.8,22,22,22h17c0.6,0,1,0.4,1,1s-0.4,1-1,1H24C10.7,48,0,37.3,0,24S10.7,0,24,0z"/>
		<path d="M24,0c-0.6,0-1,0.4-1,1s0.4,1,1,1c12.2,0,22,9.8,22,22v3c0,0.6,0.4,1,1,1s1-0.4,1-1v-3C48,10.7,37.3,0,24,0z"/>
	</g>
</svg>
