<svg xmlns="http://www.w3.org/2000/svg" viewBox="0 0 48 48">
	<g>
		<path d="M1,48c-0.6,0-1-0.4-1-1s0.4-1,1-1h46c0.6,0,1,0.4,1,1s-0.4,1-1,1H1z"/>
		<path d="M40,7V2H8v5H40z M8,0h32c1.1,0,2,0.9,2,2v7H6V2C6,0.9,6.9,0,8,0z"/>
		<path d="M3,8c0-0.6,0.4-1,1-1s1,0.4,1,1v35c0,0.6-0.4,1-1,1s-1-0.4-1-1V8z"/>
		<path d="M43,8c0-0.6,0.4-1,1-1s1,0.4,1,1v35c0,0.6-0.4,1-1,1s-1-0.4-1-1V8z"/>
		<path d="M4,7h40c0.6,0,1,0.4,1,1l0,0c0,0.6-0.4,1-1,1H4C3.4,9,3,8.6,3,8l0,0C3,7.4,3.4,7,4,7z"/>
		<path d="M10,15h28c0.6,0,1,0.4,1,1l0,0c0,0.6-0.4,1-1,1H10c-0.6,0-1-0.4-1-1l0,0C9,15.4,9.4,15,10,15z"/>
		<path d="M21,31v12c0,0.6-0.4,1-1,1s-1-0.4-1-1V30c0-0.6,0.4-1,1-1h8c0.6,0,1,0.4,1,1v13c0,0.6-0.4,1-1,1s-1-0.4-1-1V31H21z"/>
	</g>
</svg>
