<svg xmlns="http://www.w3.org/2000/svg" viewBox="0 0 48 48">
	<g>
		<path d="M17.3,6.7v6.9h5.9V6.7H17.3z M16.9,4.7h6.9c0.8,0,1.5,0.7,1.5,1.5v7.9c0,0.8-0.7,1.5-1.5,1.5
			h-6.9c-0.8,0-1.5-0.7-1.5-1.5V6.2C15.4,5.3,16,4.7,16.9,4.7z"/>
		<path d="M25.3,2.7v10.9h5.9V2.7H25.3z M24.8,0.7h6.9c0.8,0,1.5,0.7,1.5,1.5v11.9
			c0,0.8-0.7,1.5-1.5,1.5h-6.9c-0.8,0-1.5-0.7-1.5-1.5V2.2C23.3,1.4,24,0.7,24.8,0.7z"/>
		<path d="M33.2,9.6v4h5.9v-4H33.2z M32.7,7.6h6.9c0.8,0,1.5,0.7,1.5,1.5v5
			c0,0.8-0.7,1.5-1.5,1.5h-6.9c-0.8,0-1.5-0.7-1.5-1.5v-5C31.2,8.3,31.9,7.6,32.7,7.6z"/>
		<path d="M1.5,8.6c-0.5,0-1-0.4-1-1s0.4-1,1-1h5c2.7,0,3.6,1.3,4.4,4.7c0.2,0.8,0.9,3.4,3,10.4
			c2.1,7.1,2.8,9.6,3,10.4c0.6,2.3,1.6,3.2,4.5,3.2h17.8c0.5,0,1,0.4,1,1s-0.4,1-1,1H21.3c-3.9,0-5.6-1.6-6.4-4.7
			c-0.2-0.8-0.9-3.4-3-10.4c-2.1-7.1-2.8-9.6-3-10.4C8.3,9.3,7.9,8.6,6.4,8.6H1.5z"/>
		<path d="M20.8,45.3c0.8,0,1.5-0.7,1.5-1.5s-0.7-1.5-1.5-1.5c-0.8,0-1.5,0.7-1.5,1.5S20,45.3,20.8,45.3z
			 M20.8,47.3c-1.9,0-3.5-1.6-3.5-3.5s1.6-3.5,3.5-3.5s3.5,1.6,3.5,3.5S22.7,47.3,20.8,47.3z"/>
		<path d="M35.7,45.3c0.8,0,1.5-0.7,1.5-1.5s-0.7-1.5-1.5-1.5s-1.5,0.7-1.5,1.5S34.9,45.3,35.7,45.3z
			 M35.7,47.3c-1.9,0-3.5-1.6-3.5-3.5s1.6-3.5,3.5-3.5s3.5,1.6,3.5,3.5S37.6,47.3,35.7,47.3z"/>
		<path d="M11.4,15.6c-0.5,0-1-0.4-1-1s0.4-1,1-1l33.1,0c1.6,0,3,1.3,3,3c0,0.3,0,0.5-0.1,0.7
			c-1.3,5.2-2.3,8.4-2.9,9.8c-1.6,3.7-4.1,5.3-10.3,5.3H21.3c-0.5,0-1-0.4-1-1c0-0.5,0.4-1,1-1h12.9c5.5,0,7.3-1.2,8.5-4.1
			c0.5-1.3,1.5-4.5,2.8-9.6c0-0.1,0-0.2,0-0.2c0-0.5-0.4-1-1-1L11.4,15.6z"/>
	</g>
</svg>
