<svg xmlns="http://www.w3.org/2000/svg" viewBox="0 0 48 48">
	<g>
		<path d="M14,25v-7c0-1.7,1.3-3,3-3h15V4c0-1.1-0.9-2-2-2H4C2.9,2,2,2.9,2,4v19c0,1.1,0.9,2,2,2h3v3l3.4-3H14z M8.3,29.5C7,30.6,5,29.7,5,28v-1H4c-2.2,0-4-1.8-4-4V4c0-2.2,1.8-4,4-4h26c2.2,0,4,1.8,4,4v11c0,1.1-0.9,2-2,2H17c-0.6,0-1,0.4-1,1v7c0,1.1-0.9,2-2,2h-2.9L8.3,29.5z"/>
		<path d="M36.5,40H18c-1.1,0-2-0.9-2-2V19c0-1.1,0.9-2,2-2h26c1.1,0,2,0.9,2,2v19c0,1.1-0.9,2-2,2h-3v4L36.5,40z M39.7,45.5C41,46.6,43,45.7,43,44v-2h1c2.2,0,4-1.8,4-4V19c0-2.2-1.8-4-4-4H18c-2.2,0-4,1.8-4,4v19c0,2.2,1.8,4,4,4h17.7L39.7,45.5z"/>
	</g>
</svg>
