<svg xmlns="http://www.w3.org/2000/svg" viewBox="0 0 48 48">
	<g>
		<circle cx="47" cy="42" r="1"/>
		<circle cx="47" cy="36" r="1"/>
		<g transform="translate(12.000000, 15.000000)">
			<path d="M1,0h18c0.6,0,1,0.4,1,1l0,0c0,0.6-0.4,1-1,1H1C0.4,2,0,1.6,0,1l0,0C0,0.4,0.4,0,1,0z"/>
			<path d="M1,8h8c0.6,0,1,0.4,1,1l0,0c0,0.6-0.4,1-1,1H1c-0.6,0-1-0.4-1-1l0,0C0,8.4,0.4,8,1,8z"/>
			<path d="M15,8h8c0.6,0,1,0.4,1,1l0,0c0,0.6-0.4,1-1,1h-8c-0.6,0-1-0.4-1-1l0,0C14,8.4,14.4,8,15,8z"/>
			<path d="M1,16h17c0.6,0,1,0.4,1,1l0,0c0,0.6-0.4,1-1,1H1c-0.6,0-1-0.4-1-1l0,0C0,16.4,0.4,16,1,16z"/>
		</g>
		<path d="M33,19c-1.7,0-3-1.3-3-3s1.3-3,3-3c1.7,0,3,1.3,3,3S34.7,19,33,19z M33,17c0.6,0,1-0.4,1-1s-0.4-1-1-1s-1,0.4-1,1S32.4,17,33,17z"/>
		<path d="M24,25c0.6,0,1-0.4,1-1s-0.4-1-1-1s-1,0.4-1,1S23.4,25,24,25z M24,27c-1.7,0-3-1.3-3-3s1.3-3,3-3s3,1.3,3,3S25.7,27,24,27z"/>
		<path d="M33,33c0.6,0,1-0.4,1-1s-0.4-1-1-1s-1,0.4-1,1S32.4,33,33,33z M33,35c-1.7,0-3-1.3-3-3c0-1.7,1.3-3,3-3c1.7,0,3,1.3,3,3C36,33.7,34.7,35,33,35z"/>
		<path d="M48,36V6c0-2.8-2.2-5-5-5H5C2.2,1,0,3.2,0,6v36c0,2.8,2.2,5,5,5h38c2.8,0,5-2.2,5-5h-2c0,1.7-1.3,3-3,3H5c-1.7,0-3-1.3-3-3V6c0-1.7,1.3-3,3-3h38c1.7,0,3,1.3,3,3v30H48z"/>
	</g>
</svg>
