<svg xmlns="http://www.w3.org/2000/svg" viewBox="0 0 48 48">
	<g>
		<path d="M3.2,14.5l1.1,1.7c-0.9,0.6-1.2,0.8-1.5,1C2.1,17.7,2,18,2,19.1v22.9c0,1.4,1.1,2.6,2.4,2.6h39.3c1.3,0,2.4-1.1,2.4-2.6V19.1c0-1.4-0.1-1.6-2.5-3l1-1.7c2.6,1.5,3.5,2.2,3.5,4.7v22.9c0,2.5-2,4.6-4.4,4.6H4.4c-2.4,0-4.4-2-4.4-4.6V19.1C0,16.5,1,15.9,3.2,14.5z"/>
		<path d="M3,14.6c0.7-0.4,4.6-2.9,5.7-3.6l1.1,1.7c-1,0.7-5,3.2-5.7,3.6L3,14.6z M32.9,9.5l-9-5.6c-1.4,1-4.3,2.8-8.6,5.6l-1.1-1.7c4.9-3.1,8-5.1,9-5.9l0.5-0.4L34,7.8L32.9,9.5z M39.9,11.5c0.2,0.1,4,2.5,5.7,3.5l-1.1,1.7c-1.7-1.1-5.5-3.4-5.7-3.5L39.9,11.5z"/>
		<path d="M0.4,22.3l1.1-1.6l21.3,14.8c0.7,0.5,1.6,0.5,2.3,0l21.3-14.8l1.1,1.6L26.3,37.1c-1.4,1-3.2,1-4.6,0L0.4,22.3z"/>
		<path d="M38,21.5v-12H10v12H8v-12c0-1.1,0.9-2,2-2h28c1.1,0,2,0.9,2,2v12H38z M38,21.5v-12H10v12H8v-12c0-1.1,0.9-2,2-2h28c1.1,0,2,0.9,2,2v12H38z"/>
		<circle cx="9" cy="21.5" r="1"/>
		<circle cx="39" cy="21.5" r="1"/>
	</g>
</svg>
