<svg xmlns="http://www.w3.org/2000/svg" viewBox="0 0 48 48">
	<g>
		<path d="M3.2,14l1.1,1.7c-0.9,0.6-1.2,0.8-1.5,1C2.1,17.2,2,17.5,2,18.6v22.9C2,42.9,3.1,44,4.4,44h39.3c1.3,0,2.4-1.1,2.4-2.6V18.6c0-1.4-0.1-1.6-2.5-3l1-1.7C47,15.4,48,16,48,18.6v22.9c0,2.5-2,4.6-4.4,4.6H4.4C2,46,0,44,0,41.4V18.6C0,16,1,15.4,3.2,14z"/>
		<path d="M3,14.1c0.7-0.4,4.6-2.9,5.7-3.6l1.1,1.7c-1,0.7-5,3.2-5.7,3.6L3,14.1z M32.9,9l-9-5.6c-1.4,1-4.3,2.8-8.6,5.6l-1.1-1.7c4.9-3.1,8-5.1,9-5.9L23.9,1L34,7.3L32.9,9z M39.9,11c0.2,0.1,4,2.5,5.7,3.5l-1.1,1.7c-1.7-1.1-5.5-3.4-5.7-3.5L39.9,11z"/>
		<path fill="none" stroke="#00e0b4" stroke-width="2" d="M1,21l21.3,14.8c1,0.7,2.4,0.7,3.4,0L47,21"/>
		<path fill="none" stroke="#00e0b4" stroke-width="2" d="M9,20h30V9c0-0.6-0.4-1-1-1H10C9.4,8,9,8.4,9,9V20z"/>
		<circle cx="9" cy="21" r="1"/>
		<circle cx="39" cy="21" r="1"/>
	</g>
</svg>
