<svg xmlns="http://www.w3.org/2000/svg" viewBox="0 0 96 48">
	<g>
		<path d="M1,23h20c0.6,0,1,0.4,1,1l0,0c0,0.6-0.4,1-1,1H1c-0.6,0-1-0.4-1-1l0,0C0,23.4,0.4,23,1,23z"/>
		<path d="M15,13h20c0.6,0,1,0.4,1,1l0,0c0,0.6-0.4,1-1,1H15c-0.6,0-1-0.4-1-1l0,0C14,13.4,14.4,13,15,13z"/>
		<path d="M15,33h20c0.6,0,1,0.4,1,1l0,0c0,0.6-0.4,1-1,1H15c-0.6,0-1-0.4-1-1l0,0C14,33.4,14.4,33,15,33z"/>
		<g transform="translate(48.000000, 7.000000)">
			<path d="M14,34h30c2.2,0,4-1.8,4-4V4c0-2.2-1.8-4-4-4H4C1.8,0,0,1.8,0,4v26c0,2.2,1.8,4,4,4h3v-2H4c-1.1,0-2-0.9-2-2V4c0-1.1,0.9-2,2-2h40c1.1,0,2,0.9,2,2v26c0,1.1-0.9,2-2,2H14V34z"/>
			<circle cx="7" cy="33" r="1"/>
			<circle cx="14" cy="33" r="1"/>
			<path d="M0.4,6.8l1.1-1.6L22.9,20c0.7,0.5,1.6,0.5,2.3,0L46.4,5.2l1.1,1.6L26.3,21.6c-1.4,1-3.2,1-4.6,0L0.4,6.8z"/>
		</g>
	</g>
</svg>
