<svg xmlns="http://www.w3.org/2000/svg" viewBox="0 0 48 48">
	<g>
		<path d="M9,17H5c-1.7,0-3,1.3-3,3s1.3,3,3,3h4v2H5c-2.8,0-5-2.2-5-5s2.2-5,5-5h4V17z M9,17v-2H5c-2.8,0-5,2.2-5,5s2.2,5,5,5h4v-2H5c-1.7,0-3-1.3-3-3s1.3-3,3-3H9z"/>
		<path d="M41,23v-6h2c1.7,0,3,1.3,3,3s-1.3,3-3,3H41z M43,15h-4v10h4c2.8,0,5-2.2,5-5S45.8,15,43,15z"/>
		<path d="M12,11c-1.7,0-3,1.3-3,3v11c0,1.7,1.3,3,3,3h10.5c3.6,0,7.1,1.3,9.9,3.7l6.6,5.8V2.1l-6.7,5.5c-2.7,2.2-6,3.4-9.5,3.4H12z M12,9h10.8c3,0,5.9-1,8.2-2.9l6.7-5.5c0.9-0.7,2.1-0.6,2.8,0.3C40.8,1.2,41,1.6,41,2.1v35.4c0,1.1-0.9,2-2,2c-0.5,0-1-0.2-1.3-0.5l-6.6-5.8c-2.4-2.1-5.4-3.2-8.6-3.2H12c-2.8,0-5-2.2-5-5V14C7,11.2,9.2,9,12,9z"/>
		<path d="M17,33v11c0,1.1,0.9,2,2,2s2-0.9,2-2V33h2v11c0,2.2-1.8,4-4,4s-4-1.8-4-4V33H17z"/>
		<polygon points="21,14 23,14 23,25 21,25"/>
		<circle cx="16" cy="33" r="1"/>
		<circle cx="22" cy="33" r="1"/>
		<circle cx="22" cy="14" r="1"/>
		<circle cx="22" cy="25" r="1"/>
	</g>
</svg>
