<svg xmlns="http://www.w3.org/2000/svg" viewBox="0 0 48 48">
	<g>
		<path d="M33,36h9c2.2,0,4-1.8,4-4V6c0-2.2-1.8-4-4-4H6C3.8,2,2,3.8,2,6v26c0,2.2,1.8,4,4,4h17.9l9.1,7.7V36z M35,38v7.8c0,0.2-0.1,0.5-0.2,0.6c-0.4,0.4-1,0.5-1.4,0.1L23.2,38H6c-3.3,0-6-2.7-6-6V6c0-3.3,2.7-6,6-6h36c3.3,0,6,2.7,6,6v26c0,3.3-2.7,6-6,6H35z"/>
		<g transform="translate(12.000000, 12.000000)">
			<rect y="1" width="2" height="12"/>
			<rect x="9" y="1" width="2" height="12"/>
			<rect x="15" y="1" width="2" height="12"/>
			<path d="M17,2v4h4c1.1,0,2-0.9,2-2s-0.9-2-2-2H17z M16,0h5c2.2,0,4,1.8,4,4s-1.8,4-4,4h-6V1C15,0.4,15.4,0,16,0z"/>
			<rect x="1" y="6" width="9" height="2"/>
			<path d="M25.6,14h-2.4l-4-6.5l1.7-1.1L25.6,14z"/>
		</g>
		<circle cx="13" cy="25" r="1"/>
		<circle cx="13" cy="13" r="1"/>
		<circle cx="22" cy="13" r="1"/>
		<circle cx="22" cy="25" r="1"/>
		<circle cx="28" cy="25" r="1"/>
	</g>
</svg>
