<svg xmlns="http://www.w3.org/2000/svg" viewBox="0 0 48 48">
	<g>
		<path d="M48,29V7c0-3.3-2.7-6-6-6H6C2.7,1,0,3.7,0,7v34c0,3.3,2.7,6,6,6h36c3.3,0,6-2.7,6-6v-2h-2v2c0,2.2-1.8,4-4,4H6c-2.2,0-4-1.8-4-4V7c0-2.2,1.8-4,4-4h36c2.2,0,4,1.8,4,4v22H48z M48,29V7c0-3.3-2.7-6-6-6H6C2.7,1,0,3.7,0,7v34c0,3.3,2.7,6,6,6h36c3.3,0,6-2.7,6-6v-2h-2v2c0,2.2-1.8,4-4,4H6c-2.2,0-4-1.8-4-4V7c0-2.2,1.8-4,4-4h36c2.2,0,4,1.8,4,4v22H48z"/>
		<path d="M19.3,23.4L7.7,34.7c-0.4,0.4-1,0.4-1.4,0c-0.4-0.4-0.4-1,0-1.4l12.3-12c0.4-0.4,1-0.4,1.4,0l9.8,9.6l4.6-4.5c0.4-0.4,1-0.4,1.4,0l7,6.9c0.4,0.4,0.4,1,0,1.4c-0.4,0.4-1,0.4-1.4,0L35,28.5L30.4,33c-0.4,0.4-1,0.4-1.4,0L19.3,23.4z"/>
		<path d="M31,19c-2.2,0-4-1.8-4-4s1.8-4,4-4s4,1.8,4,4S33.2,19,31,19z M31,17c1.1,0,2-0.9,2-2s-0.9-2-2-2c-1.1,0-2,0.9-2,2S29.9,17,31,17z"/>
		<circle cx="47" cy="39" r="1"/>
		<circle cx="47" cy="29" r="1"/>
	</g>
</svg>
