<svg xmlns="http://www.w3.org/2000/svg" viewBox="0 0 48 48">
	<g>
		<path d="M48,8V7c0-3.3-2.7-6-6-6H6C2.7,1,0,3.7,0,7v34c0,3.3,2.7,6,6,6h36c3.3,0,6-2.7,6-6V13h-2v28c0,2.2-1.8,4-4,4H6c-2.2,0-4-1.8-4-4V7c0-2.2,1.8-4,4-4h36c2.2,0,4,1.8,4,4v1H48z M48,8V7c0-3.3-2.7-6-6-6H6C2.7,1,0,3.7,0,7v34c0,3.3,2.7,6,6,6h36c3.3,0,6-2.7,6-6V13h-2v28c0,2.2-1.8,4-4,4H6c-2.2,0-4-1.8-4-4V7c0-2.2,1.8-4,4-4h36c2.2,0,4,1.8,4,4v1H48z"/>
		<circle cx="47" cy="8" r="1"/>
		<path d="M6,12h41c0.6,0,1,0.4,1,1l0,0c0,0.6-0.4,1-1,1H6c-0.6,0-1-0.4-1-1l0,0C5,12.4,5.4,12,6,12z"/>
		<circle cx="6.5" cy="7.5" r="1.5"/>
		<circle cx="11.5" cy="7.5" r="1.5"/>
		<circle cx="16.5" cy="7.5" r="1.5"/>
		<rect x="1" y="27" width="46" height="2"/>
		<rect x="23" y="28" width="2" height="18"/>
		<path d="M7,34h11c0.6,0,1,0.4,1,1l0,0c0,0.6-0.4,1-1,1H7c-0.6,0-1-0.4-1-1l0,0C6,34.4,6.4,34,7,34z"/>
		<path d="M7,38h11c0.6,0,1,0.4,1,1l0,0c0,0.6-0.4,1-1,1H7c-0.6,0-1-0.4-1-1l0,0C6,38.4,6.4,38,7,38z"/>
	</g>
</svg>
