<svg xmlns="http://www.w3.org/2000/svg" viewBox="0 0 48 48">
	<g>
		<path d="M27.2,22.2c1.1-1.1,2.6-1.7,4.3-1.7c3.3,0,6,2.7,5.9,6c0,1.6-0.6,3.1-1.7,4.2L27.1,39
			c-0.4,0.4-1,0.4-1.4,0c-0.4-0.4-0.4-1,0-1.4l8.5-8.5c0.7-0.7,1.2-1.7,1.2-2.8c0-2.2-1.7-3.9-4-3.9c-1.1,0-2.1,0.4-2.8,1.1L27.2,25
			c-0.4,0.4-1,0.4-1.4,0l-1.5-1.5c-0.7-0.7-1.7-1.2-2.8-1.2c-2.2,0-4,1.8-4,4c0,1.1,0.4,2.1,1.2,2.8c1.3,1.3,2.5,2.5,3.5,3.5
			c0.4,0.4,0.4,1,0,1.4c-0.4,0.4-1,0.4-1.4,0c-1-1-2.2-2.1-3.6-3.5c-1.1-1.1-1.7-2.6-1.7-4.2c0-3.3,2.7-6,6-6c1.6,0,3.1,0.6,4.2,1.7
			l0.8,0.8L27.2,22.2z"/>
		<path d="M0.5,3.5c0-1.6,1.3-3,3-3h17.3c1.3,0,2.6,0.5,3.5,1.5l22.3,22.3c1.2,1.2,1.2,3.1,0,4.2L28.5,46.6
			c-1.1,1.1-3,1.2-4.2,0L2,25.3c-1-0.9-1.5-2.2-1.5-3.6V3.5z M2.5,3.5v18.2c0,0.8,0.3,1.6,0.9,2.2l22.3,21.4c0.4,0.4,1,0.4,1.4,0
			l18.1-18.1c0.4-0.4,0.4-1,0-1.4L22.9,3.4c-0.6-0.6-1.3-0.9-2.1-0.9H3.5C3,2.5,2.5,2.9,2.5,3.5z"/>
		<path d="M8.5,10.5c-1.1,0-2-0.9-2-2s0.9-2,2-2s2,0.9,2,2S9.6,10.5,8.5,10.5z"/>
	</g>
</svg>
