<svg xmlns="http://www.w3.org/2000/svg" viewBox="0 0 37 37">
	<g>
		<path fill="#D2D3D3" d="M12.2,1.5c-2.1,0-3.9,1.8-3.9,3.9v19.5c0,2.1,1.8,3.9,3.9,3.9h19.5c2.1,0,3.9-1.8,3.9-3.9V5.4c0-2.1-1.8-3.9-3.9-3.9H12.2z M12.2,0.5h19.5c2.7,0,4.9,2.1,4.9,4.9v19.5c0,2.7-2.1,4.9-4.9,4.9H12.2c-2.7,0-4.9-2.1-4.9-4.9V5.4C7.3,2.6,9.5,0.5,12.2,0.5z"/>
		<path fill="#D2D3D3" d="M5.4,8.3c-2.1,0-3.9,1.8-3.9,3.9v19.5c0,2.1,1.8,3.9,3.9,3.9h19.5c2.1,0,3.9-1.8,3.9-3.9V12.2c0-2.1-1.8-3.9-3.9-3.9H5.4z M5.4,7.3h19.5c2.7,0,4.9,2.1,4.9,4.9v19.5c0,2.7-2.1,4.9-4.9,4.9H5.4c-2.7,0-4.9-2.1-4.9-4.9V12.2C0.5,9.5,2.6,7.3,5.4,7.3z"/>
		<polygon fill="#1E1E1E" points="16.1,15.5 17.4,14.1 22,18.7 17.4,23.3 16.1,21.9 19.3,18.7"/>
	</g>
</svg>
