<svg xmlns="http://www.w3.org/2000/svg" viewBox="0 0 48 48">
	<g>
		<path d="M14.5,16c-1.1,0-2,0.9-2,2v26c0,1.1,0.9,2,2,2h29c1.1,0,2-0.9,2-2V18c0-1.1-0.9-2-2-2H14.5z M14.5,14h29c2.2,0,4,1.8,4,4v26c0,2.2-1.8,4-4,4h-29c-2.2,0-4-1.8-4-4V18C10.5,15.8,12.3,14,14.5,14z"/>
		<path d="M42.5,15h-2v-4c0-1.1-0.9-2-2-2h-29c-1.1,0-2,0.9-2,2v24c0,1.1,0.9,2,2,2h2v2h-2c-2.2,0-4-1.8-4-4V11c0-2.2,1.8-4,4-4h29c2.2,0,4,1.8,4,4V15z"/>
		<path d="M37.5,8h-2V4c0-1.1-0.9-2-2-2h-29c-1.1,0-2,0.9-2,2v24c0,1.1,0.9,2,2,2h2v2h-2c-2.2,0-4-1.8-4-4V4c0-2.2,1.8-4,4-4h29c2.2,0,4,1.8,4,4V8z"/>
		<g transform="translate(22.000000, 23.000000)">
			<path d="M7,6c1.7,0,3.3-0.3,4.4-0.9c0.8-0.4,1.1-0.8,1.1-1.1s-0.3-0.7-1.1-1.1C10.3,2.3,8.7,2,7,2S3.7,2.3,2.6,2.9C1.8,3.3,1.5,3.7,1.5,4s0.3,0.7,1.1,1.1C3.7,5.7,5.3,6,7,6z M7,8C2.9,8-0.5,6.4-0.5,4S2.9,0,7,0s7.5,1.6,7.5,4S11.1,8,7,8z"/>
			<path d="M1.5,8c0,0.3,0.3,0.7,1.1,1.1C3.7,9.7,5.3,10,7,10s3.3-0.3,4.4-0.9c0.8-0.4,1.1-0.8,1.1-1.1h2c0,2.4-3.4,4-7.5,4s-7.5-1.6-7.5-4H1.5z"/>
			<path d="M1.5,12c0,0.3,0.3,0.7,1.1,1.1C3.7,13.7,5.3,14,7,14s3.3-0.3,4.4-0.9c0.8-0.4,1.1-0.8,1.1-1.1h2c0,2.4-3.4,4-7.5,4s-7.5-1.6-7.5-4H1.5z"/>
			<rect x="-0.5" y="4" width="2" height="8"/>
			<rect x="12.5" y="4" width="2" height="8"/>
		</g>
	</g>
</svg>
