<svg xmlns="http://www.w3.org/2000/svg" viewBox="0 0 48 48">
	<g>
		<path d="M3.3,14.9c-0.4,0.3-1,0.1-1.3-0.3s-0.1-1,0.3-1.3l3.9-2.4C7,10.4,8,11.3,7.5,12.2c-1.8,3.1-2.8,6.7-2.8,10.4c0,4.2,1.2,8.2,3.6,11.6c0.3,0.4,0.2,1-0.3,1.3c-0.4,0.3-1,0.2-1.3-0.3c-2.5-3.7-3.9-8.1-3.9-12.7c0-2.9,0.6-5.8,1.6-8.4L3.3,14.9z M26.4,45.2l1.5,1.2c0.4,0.3,0.5,0.9,0.2,1.3c-0.3,0.4-0.9,0.5-1.3,0.2L23,44.9c-0.7-0.6-0.3-1.8,0.7-1.7c0.6,0,1.1,0.1,1.7,0.1c7.4,0,14.2-3.9,17.9-10.2c0.3-0.4,0.8-0.6,1.3-0.3c0.4,0.3,0.6,0.8,0.3,1.3C41,40.6,34.1,44.8,26.4,45.2z M44.3,7.4c0.1-0.5,0.5-0.9,1-0.8s0.9,0.5,0.8,1l-0.6,5.1c-0.1,0.9-1.3,1.1-1.8,0.3C40.2,6.2,33.2,1.9,25.4,1.9c-0.2,0-0.5,0-0.7,0c-0.5,0-1-0.4-1-0.9c0-0.5,0.4-1,0.9-1c0.3,0,0.5,0,0.8,0C32.9,0,39.8,3.7,44,9.8L44.3,7.4z"/>
		<path d="M25.4,21.6c4.9,0,8.5-1.9,8.5-3.8s-3.6-3.8-8.5-3.8s-8.5,1.9-8.5,3.8S20.5,21.6,25.4,21.6z M25.4,23.5c-5.7,0-10.4-2.3-10.4-5.7s4.7-5.7,10.4-5.7s10.4,2.3,10.4,5.7S31.1,23.5,25.4,23.5z"/>
		<path d="M16.9,22.6c0,1.9,3.6,3.8,8.5,3.8s8.5-1.9,8.5-3.8h1.9c0,3.3-4.7,5.7-10.4,5.7S15,25.9,15,22.6H16.9z M35.8,22.6c0,3.3-4.7,5.7-10.4,5.7S15,25.9,15,22.6v-4.7h1.9v4.7c0,1.9,3.6,3.8,8.5,3.8s8.5-1.9,8.5-3.8v-4.7h1.9V22.6z"/>
		<path d="M16.9,27.3c0,1.9,3.6,3.8,8.5,3.8s8.5-1.9,8.5-3.8h1.9c0,3.3-4.7,5.7-10.4,5.7S15,30.6,15,27.3H16.9z M35.8,27.3c0,3.3-4.7,5.7-10.4,5.7S15,30.6,15,27.3v-4.7h1.9v4.7c0,1.9,3.6,3.8,8.5,3.8s8.5-1.9,8.5-3.8v-4.7h1.9V27.3z"/>
	</g>
</svg>
