<svg xmlns="http://www.w3.org/2000/svg" viewBox="0 0 48 48">
	<g>
		<path d="M2.5,15c0-0.6,0.4-1,1-1s1,0.4,1,1v28c0,0.6-0.4,1-1,1s-1-0.4-1-1V15z"/>
		<path d="M43.5,15c0-0.6,0.4-1,1-1s1,0.4,1,1v28c0,0.6-0.4,1-1,1s-1-0.4-1-1V15z"/>
		<path d="M10.5,30v10h27V30H10.5z M10.5,28h27c1.1,0,2,0.9,2,2v10c0,1.1-0.9,2-2,2h-27
			c-1.1,0-2-0.9-2-2V30C8.5,28.9,9.4,28,10.5,28z"/>
		<path d="M1.5,48c-0.6,0-1-0.4-1-1s0.4-1,1-1h45c0.6,0,1,0.4,1,1s-0.4,1-1,1H1.5z"/>
		<path d="M4.6,0.6c0.2-0.5,0.8-0.7,1.3-0.5s0.7,0.8,0.5,1.3c-2.3,5-3.6,8-3.9,8.9C2.1,11.6,3.7,14,6.1,14
			c2.2,0,3.5-2,3.5-4c0-0.6,0.4-1,1-1c0.6,0,1,0.4,1,1c0,3-2,6-5.5,6c-3.7,0-6.3-3.7-5.4-6.3C1,8.6,2.3,5.6,4.6,0.6z"/>
		<path d="M9.5,10c0-0.6,0.4-1,1-1c0.6,0,1,0.4,1,1c0,2,1.3,4,3.5,4s3.5-2,3.5-4c0-0.6,0.4-1,1-1
			s1,0.4,1,1c0,3-2,6-5.5,6S9.5,13,9.5,10z"/>
		<path d="M18.5,10c0-0.6,0.4-1,1-1s1,0.4,1,1c0,2,1.3,4,3.5,4s3.5-2,3.5-4c0-0.6,0.4-1,1-1
			s1,0.4,1,1c0,3-2,6-5.5,6S18.5,13,18.5,10z"/>
		<path d="M27.5,10c0-0.6,0.4-1,1-1s1,0.4,1,1c0,2,1.3,4,3.5,4s3.5-2,3.5-4c0-0.6,0.4-1,1-1
			s1,0.4,1,1c0,3-2,6-5.5,6S27.5,13,27.5,10z"/>
		<path d="M42.9,0.5C42.6,0,42-0.1,41.5,0.1S40.8,1,41.1,1.5c2.6,4.9,4.1,7.9,4.4,8.8
			c0.4,1.3-1.2,3.7-3.6,3.7c-2.2,0-3.5-2-3.5-4c0-0.6-0.4-1-1-1s-1,0.4-1,1c0,3,2,6,5.5,6c3.7,0,6.3-3.7,5.4-6.3
			C47,8.6,45.5,5.6,42.9,0.5z"/>
		<polygon points="5.5,2 5.5,0 42.5,0 42.5,2"/>
	</g>
</svg>
