<svg xmlns="http://www.w3.org/2000/svg" viewBox="0 0 48 48">
	<g>
		<g transform="translate(0.000000, 4.000000)">
			<path d="M16,38v-2h22c1.1,0,2-0.9,2-2V11c0-1.1-0.9-2-2-2H4c-1.1,0-2,0.9-2,2v23c0,1.1,0.9,2,2,2h5v2H4c-2.2,0-4-1.8-4-4V11c0-2.2,1.8-4,4-4h34c2.2,0,4,1.8,4,4v23c0,2.2-1.8,4-4,4H16z M16,38v-2h22c1.1,0,2-0.9,2-2V11c0-1.1-0.9-2-2-2H4c-1.1,0-2,0.9-2,2v23c0,1.1,0.9,2,2,2h5v2H4c-2.2,0-4-1.8-4-4V11c0-2.2,1.8-4,4-4h34c2.2,0,4,1.8,4,4v23c0,2.2-1.8,4-4,4H16z"/>
			<circle cx="9" cy="37" r="1"/>
			<circle cx="16" cy="37" r="1"/>
			<path d="M42,32v-2h2c1.1,0,2-0.9,2-2V5c0-1.1-0.9-2-2-2H8C6.9,3,6,3.9,6,5v2H4V5c0-2.2,1.8-4,4-4h36c2.2,0,4,1.8,4,4v23c0,2.2-1.8,4-4,4H42z M42,32v-2h2c1.1,0,2-0.9,2-2V5c0-1.1-0.9-2-2-2H8C6.9,3,6,3.9,6,5v2H4V5c0-2.2,1.8-4,4-4h36c2.2,0,4,1.8,4,4v23c0,2.2-1.8,4-4,4H42z"/>
		</g>
		<g transform="translate(14.000000, 19.000000)">
			<path d="M6,14V2c0-0.6,0.4-1,1-1l0,0c0.6,0,1,0.4,1,1v12c0,0.6-0.4,1-1,1l0,0C6.4,15,6,14.6,6,14z"/>
			<path d="M1,7h12c0.6,0,1,0.4,1,1l0,0c0,0.6-0.4,1-1,1H1C0.4,9,0,8.6,0,8l0,0C0,7.4,0.4,7,1,7z"/>
		</g>
	</g>
</svg>
