<svg xmlns="http://www.w3.org/2000/svg" viewBox="0 0 48 48">
	<g>
		<path d="M9,34v-9H5.5C3.6,25,2,26.6,2,28.5v2C2,32.4,3.6,34,5.5,34H9z M5.5,23H10c0.6,0,1,0.4,1,1v11c0,0.6-0.4,1-1,1H5.5c-3,0-5.5-2.5-5.5-5.5v-2C0,25.5,2.5,23,5.5,23z"/>
		<path d="M39,34v-9h3.5c1.9,0,3.5,1.6,3.5,3.5v2c0,1.9-1.6,3.5-3.5,3.5H39z M42.5,23H38c-0.6,0-1,0.4-1,1v11c0,0.6,0.4,1,1,1h4.5c3,0,5.5-2.5,5.5-5.5v-2C48,25.5,45.5,23,42.5,23z"/>
		<path d="M31,45v-2h3.2c4.9,0,7.8-3.3,7.8-7.2V15.3C42,8,36.3,2,29.4,2H18.6C11.7,2,6,8,6,15.3v19.7H4V15.3C4,6.9,10.6,0,18.6,0h10.7C37.4,0,44,6.9,44,15.3v20.4c0,4.1-2.9,9.2-9.8,9.2H31z M31,45v-2h3.2c4.9,0,7.8-3.3,7.8-7.2V15.3C42,8,36.3,2,29.4,2H18.6C11.7,2,6,8,6,15.3v19.7H4V15.3C4,6.9,10.6,0,18.6,0h10.7C37.4,0,44,6.9,44,15.3v20.4c0,4.1-2.9,9.2-9.8,9.2H31z"/>
		<circle cx="31" cy="44" r="1"/>
		<path d="M24,46c1.1,0,2-0.9,2-2s-0.9-2-2-2s-2,0.9-2,2S22.9,46,24,46z M24,48c-2.2,0-4-1.8-4-4s1.8-4,4-4s4,1.8,4,4S26.2,48,24,48z"/>
	</g>
</svg>
