<svg xmlns="http://www.w3.org/2000/svg" viewBox="0 0 48 48">
	<g>
		<path d="M10.1,16.4c-1.1,0-2,0.9-2,2v22c0,1.1,0.9,2,2,2H44c1.1,0,2-0.9,2-2v-22c0-1.1-0.9-2-2-2H10.1z M10.1,14.4H44c2.2,0,4,1.8,4,4v22c0,2.2-1.8,4-4,4H10.1c-2.2,0-4-1.8-4-4v-22C6.1,16.2,7.9,14.4,10.1,14.4z"/>
		<rect x="6.5" y="22.4" width="39.9" height="2"/>
		<path d="M41.6,7.1c-0.3-2.2-2.3-3.7-4.4-3.5L3.5,7.8C1.3,8.1-0.2,10.1,0,12.3l2.7,21.8c0.2,1.6,1.3,2.8,2.7,3.3c1.3,0.2,2,0.2,2.1,0c0.1-0.3-0.4-0.9-1.4-1.9c-0.7-0.2-1.2-0.9-1.3-1.6L2,12c-0.1-1.1,0.6-2.1,1.7-2.2l33.7-4.1c1.1-0.1,2.1,0.6,2.2,1.7c0.4,3.6,0.8,6.3,1,8.1c0.1,0.9,2.1,0.8,2,0C42.4,13.6,42.1,10.8,41.6,7.1z"/>
	</g>
</svg>
