<svg xmlns="http://www.w3.org/2000/svg" viewBox="0 0 48 48">
	<g>
		<path d="M48,27.8c0,4.5-3.6,8.2-8,8.2H30v-2h10c3.3,0,6-2.8,6-6.2s-2.7-6.2-6-6.2c0,0-0.5,0-1.3,0l0.2-1.2c0.1-0.6,0.1-1.3,0.1-1.9C39,11,33.2,5,26,5c-5.1,0-9.7,3.1-11.8,7.8l-0.3,0.7l-0.7-0.1c-0.4,0-0.8-0.1-1.2-0.1c-5.5,0-10,4.6-10,10.4S6.5,34,12,34h6v2h-6C5.4,36,0,30.5,0,23.6s5.4-12.4,12-12.4c0.2,0,0.5,0,0.7,0C15.3,6.3,20.3,3,26,3c8.3,0,15,6.9,15,15.5c0,0.4,0,0.8,0,1.1C44.9,20.1,48,23.6,48,27.8z"/>
		<path d="M19.7,26.7c-0.4,0.4-1,0.4-1.4,0c-0.4-0.4-0.4-1,0-1.4l5.7-5.7l5.7,5.7c0.4,0.4,0.4,1,0,1.4c-0.4,0.4-1,0.4-1.4,0L24,22.4L19.7,26.7z"/>
		<path d="M24,22L24,22c0.6,0,1,0.4,1,1v21c0,0.6-0.4,1-1,1l0,0c-0.6,0-1-0.4-1-1V23C23,22.4,23.4,22,24,22z"/>
		<circle cx="18" cy="35" r="1"/>
		<circle cx="30" cy="35" r="1"/>
	</g>
</svg>
