<svg xmlns="http://www.w3.org/2000/svg" viewBox="0 0 48 48">
	<g>
		<path d="M4,13c-1.1,0-2,0.9-2,2v26c0,1.1,0.9,2,2,2h40c1.1,0,2-0.9,2-2V15c0-1.1-0.9-2-2-2H4z M4,11h40c2.2,0,4,1.8,4,4v26c0,2.2-1.8,4-4,4H4c-2.2,0-4-1.8-4-4V15C0,12.8,1.8,11,4,11z"/>
		<path d="M2,14.6v-2.4L2,12c-0.1-1,0.9-2.2,1.9-2.3l32.8-4.1c0.9-0.1,1.8,0.7,1.9,1.8c0,0.1,0,0.1,0,0.2l2-0.4c-0.2-2.2-2.1-3.8-4.1-3.6L3.7,7.6C1.7,7.8-0.2,10,0,12.2L0,15L2,14.6z M2,14.6v-2.4L2,12c-0.1-1,0.9-2.2,1.9-2.3l32.8-4.1c0.9-0.1,1.8,0.7,1.9,1.8c0,0.1,0,0.1,0,0.2l2-0.4c-0.2-2.2-2.1-3.8-4.1-3.6L3.7,7.6C1.7,7.8-0.2,10,0,12.2L0,15L2,14.6z"/>
	</g>
</svg>
