<svg version="1" xmlns="http://www.w3.org/2000/svg" width="933.333" height="933.333" viewBox="0 0 700.000000 700.000000"><path d="M210.2 1.1c-8 1.4-19.8 5.5-28 10-25.8 13.8-43.7 38.7-48.7 67.6-1 5.9-1.5 15.6-1.5 30.8v22.3l-25.7.5c-29.3.6-36.1 1.7-50.9 8.6-27.5 12.9-44.6 33.5-53.1 64.1C.6 211.2.5 221.8.5 416.5v205l2.3 7.9c5 17.4 13.5 31.7 25.9 43.7 12 11.7 25.2 19.3 41.9 24.1l7.9 2.3h205c194.7 0 205.3-.1 211.5-1.8 15-4.2 23.5-8.2 35.2-16.9 12.3-9.1 21.6-20.7 28.9-36.2 6.9-14.8 8-21.6 8.6-50.8l.5-25.8h22.3c15.2 0 24.9-.5 30.8-1.5 36.4-6.3 65.5-32.8 75.9-69l2.3-8v-411l-2.3-7.9c-5.2-18-12.6-30.9-24.8-43C660.5 15.7 648.9 8.8 631 3.2L622.5.5 419 .4c-115.7-.1-205.8.2-208.8.7zM364 230.2c37.3 9.1 61.9 27.7 77.3 58.4 10.3 20.5 14.9 48 12.7 75.5-4.1 51-29.8 87.2-73.2 103-20.3 7.5-37.6 9.1-90 8.7-36.1-.3-37.8-.4-40.4-2.3-5.6-4.3-5.5-.2-5.2-123.9.3-123.2.1-117.4 5.6-120.9 2.5-1.6 7-1.7 52.7-1.4 49.7.4 50.1.4 60.5 2.9z"/><path d="M289 351v86h23.9c26.2 0 36.2-1.2 47.8-5.5 32.8-12.4 49.9-43 48-86-1.8-38.8-19.5-64.8-51.3-75.4-12.4-4.1-21.2-5.1-46.5-5.1H289v86z"/></svg>