<?xml version="1.0" standalone="no"?>
<!DOCTYPE svg PUBLIC "-//W3C//DTD SVG 20010904//EN"
 "http://www.w3.org/TR/2001/REC-SVG-20010904/DTD/svg10.dtd">
<svg version="1.0" xmlns="http://www.w3.org/2000/svg"
 width="700.000000pt" height="700.000000pt" viewBox="0 0 700.000000 700.000000"
 preserveAspectRatio="xMidYMid meet">
<metadata>
Created by potrace 1.11, written by Peter Selinger 2001-2013
</metadata>
<g transform="translate(0.000000,700.000000) scale(0.100000,-0.100000)"
fill="#000000" stroke="none">
<path d="M2102 6989 c-80 -14 -198 -55 -280 -100 -258 -138 -437 -387 -487
-676 -10 -59 -15 -156 -15 -308 l0 -223 -257 -5 c-293 -6 -361 -17 -509 -86
-275 -129 -446 -335 -531 -641 -17 -62 -18 -168 -18 -2115 l0 -2050 23 -79
c50 -174 135 -317 259 -437 120 -117 252 -193 419 -241 l79 -23 2050 0 c1947
0 2053 1 2115 18 150 42 235 82 352 169 123 91 216 207 289 362 69 148 80 216
86 508 l5 258 223 0 c152 0 249 5 308 15 364 63 655 328 759 690 l23 80 0
2055 0 2055 -23 79 c-52 180 -126 309 -248 430 -119 119 -235 188 -414 244
l-85 27 -2035 1 c-1157 1 -2058 -2 -2088 -7z m1538 -2291 c373 -91 619 -277
773 -584 103 -205 149 -480 127 -755 -41 -510 -298 -872 -732 -1030 -203 -75
-376 -91 -900 -87 -361 3 -378 4 -404 23 -56 43 -55 2 -52 1239 3 1232 1 1174
56 1209 25 16 70 17 527 14 497 -4 501 -4 605 -29z"/>
<path d="M2890 3490 l0 -860 239 0 c262 0 362 12 478 55 328 124 499 430 480
860 -18 388 -195 648 -513 754 -124 41 -212 51 -465 51 l-219 0 0 -860z"/>
</g>
</svg>
