<svg viewBox="0 0 103 52" xmlns="http://www.w3.org/2000/svg"><rect fill="#00E0B4" width="67.174" height="42.203" rx="2.986"/><rect fill="#4740E3" x="35.826" y="9.797" width="67.174" height="42.203" rx="2.986"/><path d="M28.472 19.82c0-.527.255-.791.765-.791h.858c.51 0 .765.264.765.791v11.794c0 .528-.255.792-.765.792h-.858c-.51 0-.765-.264-.765-.792V19.82zM39.777 25.774c0-.992.17-1.916.513-2.77a6.66 6.66 0 0 1 1.427-2.213 6.574 6.574 0 0 1 2.165-1.46c.833-.352 1.748-.528 2.743-.528a8.22 8.22 0 0 1 3.722.867c.268.138.47.257.607.358.385.301.441.665.168 1.092l-.336.528c-.137.213-.293.336-.467.367-.174.032-.38-.022-.615-.16a7.336 7.336 0 0 0-1.157-.546c-.485-.189-1.083-.283-1.792-.283-.721 0-1.362.123-1.922.367-.56.245-1.029.578-1.408.999-.38.42-.669.914-.868 1.479a5.35 5.35 0 0 0-.299 1.79c0 .703.116 1.347.346 1.931.23.584.544 1.083.942 1.498a4.289 4.289 0 0 0 3.135 1.319c.56 0 1.048-.076 1.464-.226.417-.151.769-.32 1.055-.51.323-.213.603-.458.84-.734V27.72v-.646h-2.218c-.523 0-.784-.264-.784-.791v-.51c0-.527.261-.79.784-.79h3.598c.51 0 .765.263.765.79v1.3c0 .833-.068 2.13-.142 2.424-.23.912-1.182 1.708-1.696 2.011-.514.303-1.005.587-1.596.751-.592.164-1.828.373-2.462.373a6.33 6.33 0 0 1-2.5-.5 6.419 6.419 0 0 1-2.072-1.403 6.657 6.657 0 0 1-1.418-2.167c-.348-.841-.522-1.77-.522-2.788zM59.777 19.82c0-.527.255-.791.765-.791h.858c.51 0 .765.264.765.791v11.794c0 .528-.255.792-.765.792h-.858c-.51 0-.765-.264-.765-.792V19.82zM71.866 19.82c0-.527.255-.791.765-.791h6.064c.523 0 .784.264.784.791v.528c0 .515-.261.772-.784.772h-4.44v3.787h3.62c.522 0 .783.258.783.773v.527c0 .528-.261.792-.784.792h-3.62v4.615c0 .528-.255.792-.765.792h-.858c-.51 0-.765-.264-.765-.792V19.82zM89.496 21.12h-3.564c-.522 0-.783-.257-.783-.772v-.528c0-.527.261-.791.783-.791h9.517c.51 0 .765.264.765.791v.528c0 .515-.255.772-.765.772h-3.564v10.494c0 .528-.261.792-.784.792h-.84c-.51 0-.765-.264-.765-.792V21.12zM9.74 19.82c0-.527.255-.791.765-.791h3.75c1.02 0 1.948.15 2.781.452.834.302 1.543.735 2.127 1.3.585.565 1.039 1.262 1.362 2.091.324.83.486 1.771.486 2.827 0 1.055-.162 1.997-.486 2.826a5.975 5.975 0 0 1-1.362 2.11 5.772 5.772 0 0 1-2.127 1.319c-.833.301-1.76.452-2.78.452h-3.75c-.51 0-.766-.264-.766-.792V19.82zm4.385 10.494c1.344 0 2.413-.392 3.21-1.177.796-.785 1.194-1.931 1.194-3.438 0-.742-.106-1.398-.317-1.97a3.884 3.884 0 0 0-.896-1.431 3.841 3.841 0 0 0-1.39-.876 5.138 5.138 0 0 0-1.8-.302h-1.997v9.194h1.996z" fill="#FFF"/></svg>